<?xml version="1.0" encoding="UTF-8"?>
<svg id="Livello_1" data-name="Livello 1" xmlns="http://www.w3.org/2000/svg" viewBox="0 0 610.31 791.73">
  <defs>
    <style>
      .cls-1, .cls-2 {
        fill: none;
        stroke: #fff;
        stroke-miterlimit: 10;
      }

      .cls-3 {
        fill: #fff;
        stroke-width: 0px;
      }

      .cls-2 {
        stroke-width: .88px;
      }
    </style>
  </defs>
  <path id="SM" class="cls-2" d="m297.88,284.39h0l3.36.38.34-1.18h0l1-1.37-.28-3.29-3.25,2.18-1.46.03.25,3.17.04.09Z"/>
  <path id="IT_65" data-name="IT 65" class="cls-2" d="m365.86,346.91l1.19,5.57,1.97,4.84,5.51,9.82,6.16,6.77,7.24,5.4.76,2.05,3.22,3.1.29,1.19,4.88,3.25,4.53,1.61.18,4.26,3.01,2.13h0l-1.03,1.62.8.74-2.49,1.72-2.02,2.49-.72,2.72-2.07,1.46-1.51,3.28-4.18,4.51-1.79-.32.69-.56-.94-3.77-.97-.94-2.14-1.42-.92,1.16-.5-.19-.86-1.92-1.09.11-.83-1.11-2.56,2.09-1.26,1.95-1.95.13-.37.79,1.1,3.12,1.33.78-.37.9-.75-.11-.22-.89-.59,1.09-1.75.04-.55,2.32-.69-1.82-1.02.08-.76,2.11-1.17.04-.25,1.28-1.64-.86-1.84.46h0l-2.19-2.87-1.72.17-2.11-1.24-.9.57-1.17-.35-1.54-2.91-1.16.64-.94-1.04-1.56-.43-.93,1.84-3.56,1.19-1.3-.82-.64-1.59-1.62-.38-1.3-1.26-1.52-.61-1.23,1.19-.88-3.19,1.12-2.01-.88-1.24-.89.16-1.74-2-.79.32-6.72-3.94-1.78-.63-.02,1.09-2.09-.56-1.24-1.98.13-4.32.68.32,1.83-1.56.04-2.1,1.52-.11,5.76,3.1,1.09-.68,1.48.54.94-1.96,1.32-.25-.47-.62,1.61-.29-1.69-1.07-.26-1.43-2.13-.74-2.27-2.23-.57-2.88-3.28-2.18,1.83-2.05-3.5-3.28,2.79-2.13-.09-2.09-.88-1.63.9-.51.67-2.42,2.41.91.54-.64h1.19l.51.86,1.32-.68,1.98.27,1.19-1.03.67-3.01-1.75-.55-1.01-1.2.47-1.48h0l1.46.42,1.65-1.17.5.4.53-2.08,2.08-.34.26-2.19,1.18-1.31.21-1.26,1.83.99,2.08-.97.59.83,1.19-.15,1.77-.83.4-1.94.6-.33,2.44-.16,1.85-1.24,4.38-.94h0l.24.21Z"/>
  <path id="IT-77" class="cls-2" d="m438.89,457.66l-.29-1.08,1.18-1.08,1.71-.33,4.08.68,2.2-.79,1.27.92,1.48-.8-.14-.83,1.47-.38-.16-.67.72.25,1.25-.75,2.02,1.45,1.53.26.21.9,1.11.26.54,2.06.54-.37,1.62,1.32-.56.91.26,1.36-1.57,1.8-1.33-.24.54.99,4.91,2.09,1.4,1.33,1.88-1.72,1.76.57,2.58,5.67,5.76,5.31.68,1.53,1.34.37,3.06-3.55,1.79,2.17-.05-1.66.85-.23.75,1.17.1-1.53,1.48.64.89-.56.15.87,1.03.61.47-.65,2.56,1.95-.9.45,1.07,1.24-.79,3.18.81,1.8-.55.4-.38,2.54.84.89-.39.71,1.02.77-.84,1.83.76.83,1.49-.38,1.55.94.32,1.42,1.53,1.29.68,1.63h0l-3.46,4.95-4.22,9.1-2.01,1.47h0l-2.39-.83-2.74.85-2.7-.9-1.68.32-.58-.97-.55,1.29.19,2.49-.9,1.95.23,1.76-2.68,4.78.97,1-.39,1.16-1.88-2.1-1.76-.16-2.57.58-.02,1.54-2.44-1.12-.91.95-4.22.23-1.36-1.53.32-.54-.75-1.41,1.09-1.96-1.02-.28-1.31.75-.61-.84-1.62-.26-1.26,1.08-.54-.76-.82.43-.79-.83-1.48.16-2.06,2.22-.83,2.28h0l-1.57-3.12-1.84-1.69-.12-1.3-1.48-.86h0l1.48-.89-1.12-1.21,1.06-.3,1.37-1.86-.28-2.56,1.42-1.45-.12-.88,3.05-1.3-.46-1.08.82-.73-.04-1.25-.54-1.01-2.57-.75-.12-1.16-1.44-1.33-.04-2.25-1.84-.67-1.41-1.88-1.81-.9-.42-1.52-1.91-1.5.63-.95-1.19-2.82.61-.72-3.82-2.31.64-1.77,1.45-.89.05-.71-5.21-3.38.15-4.26-.72-.06.19-1.04-1.81-1.12,1.84-.13.11-1.88-.9-.46.38-.58,4.21.95.56-.31-.2-1.02,2.6-1.13,1.98-5.15-1.2-3.49Z"/>
  <path id="IT-78" class="cls-2" d="m448.44,524.3l.83-2.28,2.06-2.21,1.48-.16.79.82.82-.43.54.76,1.26-1.08,1.63.26.61.84,1.31-.75,1.02.27-1.09,1.96.75,1.41-.32.54,1.36,1.53,4.22-.23.91-.95,2.44,1.11.02-1.54,2.57-.57,1.76.16,1.88,2.09.39-1.16-.97-1,2.68-4.78-.24-1.77.9-1.94-.18-2.49.55-1.28.58.97,1.68-.32,2.71.9,2.74-.85,2.39.83h0l-1.68,2.14-.3,2.31,1.19,5.08-4.04,5.12-2.2,4.07.04,2.56,1.77,2.04-.48,3.04,4.46,2.64,7.06.11,4.14,4.68,4.12,2.52,3.05.78.68,1.81,1.88,1.81,3.44,1.19-2.07,5.16-.22,3.24,1.91,2.79-1.72,5.75,1.26,1.65-.27.83.63,1,2.69,1.27-1.9,1.72.22,2.46-3.35,3.51-.24-.97-1.24-.45-1.85.67-1.88-1.91-4.12.65-5.02,1.87-7.68,4.76-3.21,5.75,1.01,1.79,1.15,12-.4,2.48-4.96,5.16-6.36,2.69-7.03,8.89-.89,5.95-2.23,4.24-1.48,1.84-2.93.47-3.54-.83-7.19.68-3.72-2.12-1.91-3.57.94-1.33-1.12-2.98,1.11-2.55-.98-2.95.04-2.39,3.6-1.48,1.66-.05,2.27-1.28,1.1-1.91.4-2.79,1.01-.91.7-2.41,1.29-1.18.64-1.7.66-4.28-4.67-4.18.42-1.6,1.59-1.51,3.71-1.23,1.53-1.61,2.16-.26,3,.9,1.52-.44,2.13-1.67,1.74-5.69-.25-4.5-2.71-1.32-2.65-4.9-1.42-6.38-.68-9.19-2.41-7.97-3.21-5.01-2.32-1.66-1.86-6.45-.8-.66-1.23-7.72-.84-1.48,1.01-1.7-1.71-3.6h0Z"/>
  <path id="IT-72" class="cls-1" d="m368.46,433.32l1.33.68-.25,1.33,1.81,2.15,1.89-.42,1.14.76-.24-2.13-1.2-1.47,1.93-3.54,2.01,1.68.34-1.21,3.03.05.18.75h1.55s.24.9.24.9l1.78.96,7.03,2.05.33,1.4,1.05.8,2.93-.46,1.07,1.55,1.92-1.71.92-.05-.04-.83,1.73-.21.83.65,1.65-.51,1.51-2.54,3.52,1.49,1.38-1.4,2.33-.19,2.62-1.84h0l1.59,2.49,2.51.7.17.7-.72.68.47,1.05-.93.16-.74,1.03.54,2.3,2.61.93.18,1.91,3-.12.91,1.3,1.42-.28,1.11,1.26-1.41.9.75,2.09-1.77,1.05-.71,1.75,1.38.68.64,1.66,1.77,1.26.97-.79,2.49,1.05,1.49-1.13,1.84,1.58,1.38-.12,3.16,1.58h0l1.2,3.49-1.98,5.15-2.6,1.13.2,1.02-.56.31-4.21-.96-.39.59.9.45-.11,1.89-1.84.13,1.81,1.12-.19,1.03.73.06-.15,4.26,5.21,3.38-.05.71-1.46.88-.64,1.77,3.82,2.31-.61.72,1.19,2.82-.63.95,1.9,1.5.43,1.52,1.81.9,1.41,1.88,1.84.67.04,2.25,1.45,1.33.12,1.16,2.57.75.54,1.01.04,1.26-.82.73.46,1.08-3.05,1.29.12.88-1.41,1.45.28,2.56-1.37,1.86-1.05.3,1.12,1.2-1.49.89h0l-.76-1.72-2.44-.33-3.14.83-3.72,4.28-2.98-.5-1.78-1.74-1.94.48-.17-.55.76-.57-.61-1.96-2.91-2.79-1.3-.19-2.2-2.66-4.11.05-2.33-2.9-3.23-1-.54-.93,1.74-1.32.09-3.52,2.29-1.32v-2.58s-5.3-11.03-5.3-11.03l-4.68-4.92-2.4.37-1.19,1.87-2.93-.85-2.38,2.11-2.06.36-2.13-1.17-7.08,3.4.68-3.6,2.78-.55.38-1.29,3.14-2.16-.95-2.78-2.72-.86-3.11-3.42-2.42-1.62-2.33.97-1.62,2.09-1.29-.19.68-.33-.62-.9-2.94-.84-.97.68.75,2.36-1.98-.67v-3.97s-.99-3.45-.99-3.45l-2.33-3.71-.05-.13-2.12-2.28-1.23-4.24-3.13-5.11-2.8-2.82h0l.48-1.16,2.63-.51.44-.68-.57-.21.09-.9,2.73-.97-.9-3.93.72-1.32-1.16-1.95,1.89-.32,2.68-2.43.6.02h0Z"/>
  <path id="IT-45" class="cls-2" d="m313.2,280.3l-1.03,2.71.2,3.63-2.21.87-.47,1.84-2.56-.32.17-.91-.7-.27-.61-2.2-2.39.99v-1.88l-1.99-1.16h0l.99-1.37-.28-3.29-3.25,2.18-1.46.04.25,3.16h0l1.06,1.95h-1.42s-.3-.73-.3-.73l-1.75.69-.89,3.05-2.28,1.84-.18,1.91h0l-.04-.03h0l-1.44.78-1.78-.32-.73,1.73-1.36-2.03-1.26.7-1.24-.14h0l-1.51.79-.97-1.12h0l-.81.22-1.28-.79-.93.37h0l-1.43-.92-.18-.85h0l-1.19-.16-.46-1.13-4.09-.18-1.76-2.12-3.14-1.76.24-2.69-1.6-1.07.29-1.43-1.91-1.83.22-1.01.59.08-.18-.96,1.48-.56.38-1.75,1.78-1.92.3-2.36-4.8.97-2.33-.32,1.27-1.84-.17-.91-2.28-.47-.9.88-1.05-.23-1.52-1.73-1.22-.33-.3-1.88-1.17-1.05-2.16,2.1-2.19.23-.18.94-2,1.82-3.5.12-.1.83,2.57,1.49.22.95-2.23.14-2.71-.78-2.93,1.27-2.42-.28-1.36-1.01.54-.91-.35-.8-4.27,4.79-.58-.26.28-.83-.6-.8-2-.44-4.36-3.54-4.89-.11-.88,1.08.06,1.19-1.47.37-3-2.68-.21-1.36-1.53-1.41.04-1.21-1.07-.59-1.47.25-2.59-2.67-1.41-.03-1.92-1.08-2.09,1.05-4.94-5.23-2.14.45-3.76-2.58-.99-1.11.47-2.3-.92-.18-.44-1.09-2.13-.76-4.7.52-2.99,4.72-3.16,1.84h0l-1.25-2.92-2.37-1.75-.92.57-1.24-.76-.31.84-2.44.24-.83.99-.23-1.03-1.45.34,1.35-3.96,1.16-.18.42-3-.76-1.84-2.84-.97-.69-1.52-2.14,1.57-2.77-2.24-.39.92-1.84-.31.3-.74-.52-.55-1.98.39h0l-.03-4.46.43.17h0l1.54-.1-.28-1.77,1.15,2.2,2.84-.75-.62-1.22.78-.91-.13-1.07-1.53-.82-.26-.97,3.38-3.41-.94-2.85-.85-.72-.64.35-1.54-1.41,1.1-1.44-.53-.9,1.46-.37,1.2-3.56,1.44-1.54-.11-1.91,1.8-1.62-.1-.59,1.08.16.28-.71,2.49-.63,1.38,1.63.99-.9-.55-2.4.64-.11,1.41,1.88,1.12-.47.57-1.68.81,1.1-.13,2.2,3.67,1.57,1.42-1.25.44-.89-.66-.96.76-.24.73,1.35,1.62.83.32,1.63.82-2.82.88.03.89,1.3.77-.34.18-1.02-.99-1.4,1.58-1.28.64.54-.33,1.92,2.53-1.94.78.08,1.65,2.15-.39,1.31,1.33,1.08.06,1.07,1.31-.31.7,1.53,2.92-1.37.47.82,1.95-.05,2.63,2.08,1.41.04,2.49,1.99,2.15-1.18,1.29,2.56,4.01,1.96,3.46-.15,1.27-.74,2.51-3.62.4,1.42,1.58-1.82.85,2.74,3.87.63.66.69.77-.14.07.66,1.18-.15-.18.51,1.28-.79,1.19.19.2-1.01,2.04-1.05,2.74.23.82-.69,2.33.56,1.07,1.36.48-.57,3.42-.27.32-.58,1.3.92,1.47-1.4,5.47.81h0l.14,1.31,5.01-.32,1.84,1.24.38,1.42.62.22,1.09-.11,1.77-1.67,2.8-.78.65-1.95,2.56-1.19,5.51.07,1.94-.68,5.88.94,2.01,2.7,1.3-.85.71.92,1.89.15,1.28-1.13h.95s.73.94.73.94l-.55,1.09.29,2.54.56.83,1.75.45.53,1.91h0l-.57.15-1.05-1.62-1.05-.32-1.52,2,1.11-.44-1.46,3.84-.52,4.37.42,2.91,1.72,3.36-.1,7.76,1.55,4.18.18,2.98,1.8,6.28,1.55,3.1,5.89,6.87,2.21,1.48,5.24,5.65,2.45.9h0Zm-25.84,9.93l-.24.99,1.2,1.4,1.91-.98-.26-.97h0l-.18-.41-2.43-.03h0Z"/>
  <path id="IT-36" class="cls-2" d="m315.25,110.02l1.69.56v1.26l.61.32,3.61-.26,5.4,1.05,1.7-.47,3.66.9,3.21,2.42,1.49-.62,2.24.62,1.04-1.12,1.17.13.1-.8,1.62.46-.09.7.84.27,3.42-.61.68,1.26,1.94-.29.53.9,2.11-.25,4.37,1.38-1.32,5.36-1.67-.57-2.56.65-1.2,2.5-4.29,2.42-1.38.06.02,2.34-2.95,1.83,2.17,4.01-.51,1.5,1.61-.16-.06-.81,1.59.05.87.62,1.26-.21,1.4.92.56,1.3,2.81-.44,1.25.71-.9,2.83-3.14,3.03-3.31,2.1.26,1.99-1.38,1.41,2.68,2.5,1.44-.2,1.17-1.31,2.27.3-.25,3.06-2.76,5.32.91,2.86,1.17.78,2.09-.33,3.5,2.96,2.21.59,3.16,5.52,2.45,1.78-3.62,3.23-1.9.12-2.17-1.14-1.32.32-.08-.82.68-.37,2.38.75,1.06-.84-1.26.04-.4-1.37-.89.19-.52-.58,1.08-.83-.63-1.81-5.4-5.79-2.2-.64-.99.32-.49-.7-1.2,1.3-.17,1.46,1.55,1.25-2.95,1.42-.7-.24-1.86,1.81-2.13.2-4.51-2.42-1.62-.26h-.27l-.08-.06-3.71.98-2.53,3.88h0l-.94-.53.11-.54-.86.11.15-1.16-.89-.7.32-.7-.69-.18-.5-2.34-.85.62.31-1.03-.57-1.14.43-.23-1.78-1.69.96-.56-.72-.3.16-.72-.34-.32.04-.27-.51-1.39-.52.21.4,1.25-1.36.44-.43-.96-1.33.83-1.1-1,.35-.97-.56-.06-1.91.96-.48.91-.55-.64.38-.88-.99-.74-1.74,1.84-.59-.59-3.41,3.15-.04-1.42-.98-.46-.11-.78-1.09-.58-.6,1.41-1.76-.92.19-1.05-1.22-1.11-1.11-3.98h-1.3s-.91-1.33-.91-1.33l-1.26-.04-.02-3.05-.62-2.28-.81-.7,1.55-2.47,2.55-1.72.4-3.14-2.13-1.71-.26-1.87-1.61.09-.23-1.39-1.83.02-1.86-2.5,1.58-1.65-.04-1.75.91-.74,1.68.24.29-1.77,1.61-.82-.16-.53.53.24-.28-1.21,1.76-1.55.25-1.54,1.3-1.79.36.38,1.38-1.1,1.62.69.91-.69,1.6.68-.34-1.53-1.08-.7.11-.83,3.04-1.91,2.24-.05-.77-1.02.61-1.99-.85-1.46.17-1.58h0l1.45-.8,1.54.57h0Z"/>
  <path id="IT-62" class="cls-2" d="m368.24,431.44l.89.75-.67,1.14-.66-.03-2.67,2.43-1.89.32,1.16,1.95-.71,1.32.9,3.93-2.73.98-.09.9.57.21-.44.68-2.63.51-.48,1.16-2.47-1.77-1.07.53-2.47-1.01-2.59,1.46.1,1.28.79.53-1.79.06-7.85-4.58-3.81-.91-1.44.88-2.04-.11-2.56.82-2.91,2.77-2.12-.17-2.57-5.91-3.21-3.42-3.16-1.75-2.96-.3-.71.55-4.23-2.84-1.49.25-.12.62-.76-.32-2.92-5.15-6.22-7.42-3.23-2.74-5.45-2.49-.82-5.18-2.75-5.05-4.24-2.49-1.14-1.7-2.25-.86-.5-1.06-2.05-1.3-3.75.55-1.47-3.42-2.67-3.52-.16-1.65-1.86-3.75-1.98-2.78-4.78-3.89-4.51-2.15,1.63-3.64,5.97-.07-.08-3.01-2.45-1.68,1.2-1.7-.4-1.55.54-.29,1,.92.59-.78.71.2,1.53-.77.18-.95,1.32-.97,1.13.22.8-1.88,1.2.17,1.23-.81-.07-.95-.92-.42-.36-2.3h1.08s.91-2.06.91-2.06l-3.32-2.6,1.02-2.14,1.06.41.61,1.16.45-1.77,1.43-.94,2.18.12,1.42,3.42,2.44,1.58-.89,1.74-1.62.91,1.13,1.85,3.64,2.25,3.23-1.15.89.94.11-.66.59.19,1.21-1.05,1.43.6,1.47,1.81.48,3.93,1.47.68-.18,1.72.91.75-.66.59,1.33.7-.61.4,1.64-.18,1.08,1.11,1.76-1.42,1.29.14-.22,1.63.65.6-.6.2v1.81s2,.7,2,.7l-.85,1.25,3.2-.46-.04,1.48.76.88,3.8-2.95.19-3.41,1.05-.07.78,1.63,1.06-.04,2.63-1.73-1.2-1.79,2.69-.77.15-1.17,1.8.09,1.62-1.43,1.84-.59-.54-2.24.51-1.03,1.77.87.7-.85,2.85.04.62-1.34,1.81.95,2.46-1.51.04-.68,1.42.56,1.17-1.12.66-3.91,2.88.69.47-1.03.96-.09,3.23,2.78-.47,1.48,1.01,1.19,1.75.55-.67,3.02-1.19,1.03-1.98-.28-1.32.68-.51-.85h-1.19s-.54.63-.54.63l-2.41-.9-.67,2.42-.9.5.88,1.63.09,2.09-2.79,2.13,3.5,3.28-1.84,2.05,3.28,2.17.57,2.89,2.27,2.23,2.13.73.26,1.43,1.7,1.07-1.61.29.46.61-1.31.25-.94,1.96-1.48-.54-1.09.68-5.76-3.1-1.52.11-.04,2.11-1.83,1.56-.68-.32-.13,4.32,1.23,1.98,2.1.56.02-1.09,1.78.63,6.72,3.94.78-.32,1.74,2,.9-.17.88,1.24-1.12,2.01.88,3.19,1.23-1.19,1.52.61,1.3,1.26,1.62.38.65,1.59,1.3.82,3.56-1.19.94-1.84,1.55.43.94,1.04,1.17-.64,1.54,2.91,1.17.35.9-.58,2.11,1.25,1.72-.17,2.2,2.87,1.75,1.51,1.23,3.15.09,1.2-.6.56,1.2,1.33-.19.83-.75.16,1.07.93-2.57,1.77h0Z"/>
  <path id="IT-42" class="cls-1" d="m182.79,275.4l-.35.87-.54-.87h.9,0Zm-96.45-1.03l.69.24,1.36-1.47-1.15.02-.8-1.26.41-1.35,1.7-.94,7.9,2.53,1.44-.76,1.72.61.39-.64-.49-.76-1.15-.54,1.62-1.33,1.34.9,1.25-.43,1.04-1.35-.04-1.7-1.28-1.12.64-1.49-.76-.97,1.1-1.08-1.12-1.15v-.88l.38-.47,1.28.57.26-1.91,1.13.14.86-1.41-.21-1.75,2.8-1.55.66-1.69-1.2-2.88,1.21-.4-.04-1.67,1.36-1.09.86,1.34,1.62.17,2.7,2.29,1.15-.62.49-1.93.71-.33,1.29.92,1-1.5.31.76,2.81-.11.88.66,2.41-2.66-.69-.8,1.08-1.69,3.13.18,1.42.21,1.57,2.58-.26.79.76-.04.33,1.93,1.12-.4-.32-1.3,1.53-1.28-.02-1.29,2-.25.77,1.04,1.26-.68-.26-3.27-1.26-1.37,1.37-1.11.56-1.46,1.41-.21.63.9,2-.22,1.41,3.01,1.26-.25,1.28.75-.04,1.3,1.43,1.06,3.09-1.28-.05-1.28h0l1.98-.39.53.55-.3.74,1.84.31.39-.92,2.77,2.24,2.14-1.57.69,1.52,2.84.97.76,1.84-.42,3-1.16.18-1.35,3.96,1.45-.34.23,1.03.83-.99,2.44-.24.31-.84,1.25.76.92-.57,2.37,1.75,1.25,2.92h0l1.16-.17.89,2.27,3.54,2.75,2.27.93.08,2.26.71.61-.38,2.4,1.83-1.54,1.29.9-.66.05-1.09,1.74,3.45-.11.18,2.07.83,1.22-.43,1.08,1.56-1.32,2.08,1.29-.24,1.21-1.95,2.24h0l-1.39-.24-1.05.76-2.59-1.93.04-.81h-1.19s-1.75-1.77-1.75-1.77l-1.13.69,1.14,1.42-.21.52.66-.11-.92,1.23-4.18-2.73-1.67-2.16-2.14-1.12-.98.72-1.19-2.25-1.79-.79-.8-1.48-1.86-.7-.82-1.25-2.07-.07-1.23-1.27-.58.41-1.42-2.45-6.17-3.48-.96.91.11,2.12-3.2-1.48.46-1.56-.61-.84-9.37-2.37-.57-.93-.52.39.36.59-3.99-1.08,1.03-.18-.81-.32-2.09-.1.24.46-1.81-.42-1.82.7-1.34,1.29-1.61.31-1.29,1.35-5.22,2.65-.68.89.61-.12-2.63,2.41.67.89-1.69,2.24.33,1.79-7.03,3.51-1.75,3.04-.24,2.93-2.76,3.1-.19,1.24.65,1.19-3.77,2.54-.8,1.47-2.03.44-3.69,2.41-3.9.79-1.26,1.06-1.35-.4-2.92,1.72-1.59-.26-1.34,1.4-4.12-.94-1.09.89-.9-.19-1.89-4.54.08-1.35.66-.83,2.15-.66.33-2.78,3.84-2.01.69-1.54-.22-1.86,1.91-.82.25-1.52h0Z"/>
  <path id="IT-25" class="cls-2" d="m200.61,111.23l.46.51-.8,1.26.23.98,1.82.33.42,1.36,1.97.52.58-.89,1.96.77.97-.42,1.68,1.3h0l1.01,2.37,3.31.26,2.32,1.55.9,1.19-.2,1.92.74,1.22-1.31,1.37-1.73.1-2.27,2.24,2.32,1.12.53,1.77-.78,1.12.71.41.46,1.88-2,3.65.94,1.4-.83,3.89-2.92,3.57.32,1.67-1.05.83-.5,1.61.04.88,1.53.28-.14,1.78,1.14,1.75-.8,1.84.46,3.78,1.98.83-.62,1.2.37.76,1.16.11,1.88-1.17,1.74-.06.41-1.89,3.52-.71,1.12.86.34-.76,3.49.68h0l-9.74,14.49.99,10.32-.35,1.74.74.16.61-.71,2.16.99-.84,2.26.84.66-1.14.86.88,1.31-.6,1.68,1.31.34.45.87,2.12-1.76,1.72,1.69.98,2.06,2.32.52.1.6,1.61.42-.09,1.14,2.52,1.14.7,1.07-.33,1.5,1.41-.28.76.48-.84,1.65,2.04,1.71,1.05.19.21-1.12,1.19.64.82-1.48,2.63.98-1.12.9.36.89-.52,1.42,2.75,1.02,1.26-.75v2.16s7.02,3.76,7.02,3.76l.2.9h0l-5.47-.81-1.47,1.4-1.3-.92-.32.58-3.42.27-.48.57-1.07-1.35-2.33-.56-.82.69-2.74-.23-2.04,1.05-.2,1.02-1.19-.19-1.28.79.18-.51-1.18.15-.07-.66-.77.14-.66-.69-3.87-.62-.85-2.74-1.58,1.82-.4-1.42-2.5,3.62-1.27.74-3.46.15-4.01-1.96-1.29-2.56-2.15,1.18-2.49-1.99-1.41-.04-2.63-2.08-1.95.06-.47-.81-2.92,1.37-.69-1.52-1.31.31-.06-1.07-1.33-1.08.39-1.31-1.65-2.15-.78-.08-2.53,1.95.33-1.92-.64-.54-1.58,1.28.99,1.4-.17,1.02-.77.34-.89-1.3-.88-.03-.82,2.82-.32-1.63-1.62-.83-.72-1.35-.76.24.66.96-.44.89-1.42,1.25-3.67-1.57.13-2.2-.81-1.1-.57,1.68-1.12.47-1.41-1.88-.64.11.55,2.4-.99.9-1.38-1.63-2.49.63-.28.71-1.08-.16.1.59-1.79,1.62.11,1.91-1.43,1.54-1.2,3.56-1.46.37.53.9-1.1,1.44,1.54,1.41.64-.35.85.72.94,2.85-3.38,3.41.26.97,1.53.82.13,1.07-.78.91.62,1.23-2.84.76-1.15-2.2.28,1.77-1.54.1h0l-.32-2.5.55-1.76-1.99-1.48-.41-2.57-2.39.66-.4-.68-1.28-.11.11-.83-1.02-1.03.83-.89-.64-1.74-.9.11-1.48-1.31-1.36-2.24.21-1.52-.64-1.13-.41-.39-1.16.54-1.13-1.54-.25-2.81-2.56.2-1.42,1.41-1.44.16-.22.9-1.12-.15-.15-.88-.98.14-.34-1.02-.4,1.55-2.92-1.69-.25-3.09-1.25-1.14.31-1.14-.98-.27-.52-1.31-1.26-.38-.48-.86,1.57-2.26-1.91.84-.44-.34,1.05-.38-1.1-1.03.83-.75-.5-.36,1.11-.14-1.41-.47-.02-.43.85.11-.27-1.55-1.77-.91.64-1.31,1.19-.4-.53-1.57,1.32-1.21,1.04.88,2.44-.1v.8l.99.65.43,2.24,1.29-.1.97-.52.49-1.84,1.65-1.05-1.91-2.04,1.33.25,1.03-.7,1.38.39,1.87-.95-.82-2.45-.78.05-1.01-3.42-3.08-1.59-1.13-4.32.39-1.5-1.69-1.44-.28-1.11,1.33.27-.71-1.62.32-.88-1.78-.35.48-2.34-2.68-.8-1.77-3.35.05-1.31,1.83-2.06-1.12-4.35,7.07-7.69-.89-4,.55-1.41h0l1.06-1.17.75,1.23,1.11.57,1.07-.46,2.07,1.69.03.97-.92.55-2.18,3.9,2.06.03,1.7,1.79,1.25.29.04,1.48,2.17,4.29-1.54,2.31,2.04-.76,1.84.68-.3.88,2.05.07.65-3.21,1.79-1.91-.65-.09-.72-1.41-1.81-.47-.23-1.98-1.07-.61,1.66-1.52-.99-2.87.47-.91,2.66-.96.53-1.43-.69-2.13,2.13-1.05,1.88-2.14.93-.06,1.78-4.12,1.28-.13.15-2.1,2.05-3.84-.1-1.8-.95-1.06.24-2.84-1.46-1.83,1.18-1,.16-2.54,3.86-.87.54,1.57,1.65,1.15,1.11-2.11,1.27-.62-.21,1.28-.61.23.86.52-.11,6.72,1.66.55.88,2.64,1.33,1.6.4-.33,3.4,1.37,1.88-1.06,1.58.67,1.24-3.76,1.85.97,5.81-2.97.84.97,1.22-.88,1.98,1.8-.68,1.89.91.59-.11,1.92,2.56,1.31-.47,2.25,1.07.75.97-.68,1.43.25,2.42-2.07-.96-2.3-2.25-2.63.11-1.32.95-.61.46-1.55,1.05-.21.18-1.33-.79-.18-.32-1.09-2.74.48-1.84-1.52.61-1.33-.5-.92.54-2.64-.45-1.31,2.53-2.73.09-1.91,1.24.33,2.66-1.36,1.15.56,1.08-1.09.41,1.02h0Z"/>
  <path id="IT-57" class="cls-2" d="m352.64,306.4l-2.43-1.41-1.04-2.04-1.83-1.52-.74,1.33-1.81-.22-6.64-3.7-17.99-15.78-4.82-2.55-2.13-.21h0l-1.03,2.71.2,3.63-2.21.87-.47,1.84-2.56-.32.17-.91-.7-.27-.61-2.2-2.39.99v-1.88l-1.99-1.16h0l-.35,1.19-3.35-.38h0l-.04-.09h0l1.06,1.95h-1.42s-.3-.73-.3-.73l-1.75.69-.89,3.05-2.28,1.84-.18,1.91h0l.11.09h0l1.89.76,2.01,2.7-1.84.02.26,1.91-.81-.05-.54-3.27-.39,2.74-1.08.58-1.28-.25.18.71-.83.92-2.03.73,1.27,1.96h0l.62,1.03,2.71-.04.31.49,1.83-1.48,1.65-.11-.45.68.42,1.26-2.56,2.37,1.19,1.25,1.26-.64,1.12,1.52,1.25-1.84.87.11.73,1.25.81.04.25-.76.8.37,5.59,6.4,1.87-1.13,1.96.72,1.16-2.36,1.83.49-.32,1.77.79.74-1.58,1.48.04.74,1.99,2.6.33,2.56-.54.61,1.65,1.18.59,3,1.22.61-.12,2.55-1.42,1.36.59,1.35,1.82.37.5,1.5-.21,2.43.66,1.85-.76.58.83,1.71-.49,1.31,2.36,1.41.18.76.97.11.11,3.55,1.06-1.19.02-1.5,1.14.68,1.23-1.22,2.64,2.02,2.2,3.46,2.34-.54,1.1-1.6,1.24,3.18-.22,1.6-.81,1.67-.33-.68-1.69.68-.22,1.76h0l2.88.69.47-1.03.96-.09,3.23,2.78h0l1.47.43,1.65-1.17.49.4.53-2.09,2.08-.34.26-2.19,1.17-1.3.22-1.27,1.83,1,2.07-.97.59.83,1.19-.15,1.77-.83.4-1.94.6-.33,2.44-.17,1.86-1.24,4.38-.94h0l-1.93-5.88-1.35-7.14-9.89-24.51.15-2.85h0Zm-53.73-2.85l-.65-.23h0l-.17-.05h0l.28-.61.5.29h0l.09.47h0l-.05.14h0Z"/>
  <path id="IT-67" class="cls-2" d="m405.2,397.23l4.78,2.54,4.38.82,3.49,3.81,2.78,1.08h0l.18,2.87-1.87,2.7.72,2.57-.84,1.4.88,1.07-.66.46.88,1.31,1.63.75-1.8.9-.6,1.32-.68-.68-.03.72-1.84.8-1.16,2.13-2.85-1.32-1.1,1.33.8.7-.62,4.9,1.37.59,1.75,2.02h0l-2.62,1.84-2.33.18-1.39,1.41-3.52-1.5-1.51,2.55-1.65.51-.83-.65-1.73.2.04.83-.92.06-1.92,1.71-1.07-1.55-2.93.46-1.05-.8-.33-1.4-7.03-2.05-1.78-.96-.23-.89h-1.56s-.18-.75-.18-.75l-3.03-.06-.34,1.21-2.01-1.68-1.93,3.54,1.21,1.47.24,2.13-1.14-.76-1.89.42-1.81-2.15.25-1.33-1.33-.68h0l.67-1.13-.89-.75,2.51-1.81-1.07-.93.75-.16.18-.83-1.2-1.33.6-.55-.09-1.2-1.23-3.15-1.75-1.51h0l1.84-.46,1.64.86.25-1.28,1.17-.04.76-2.11,1.02-.08.69,1.82.55-2.32,1.75-.04.59-1.09.22.89.75.11.37-.9-1.33-.78-1.1-3.12.37-.79,1.95-.13,1.26-1.95,2.56-2.09.83,1.11,1.09-.11.86,1.92.5.19.92-1.16,2.14,1.42.97.94.94,3.77-.69.56,1.79.32,4.18-4.51,1.51-3.28,2.07-1.46.72-2.72,2.02-2.49,2.49-1.72-.8-.74,1.03-1.62h0l.4.34Z"/>
  <path id="IT-21" class="cls-2" d="m119.07,121.32l1.36,1.38-.54,1.33.65,1.73-.32,4.16-1.71,2.24,1.32,2.19-.58,1.04,1.25,1.12,2.68.88,1.93,3.5,1.3.55-.27.93.67,1.21,1.59-.05,1.77,1.36,1.44-.11h0l-.55,1.41.89,4-7.07,7.69,1.12,4.36-1.83,2.06-.05,1.32,1.77,3.35,2.68.8-.48,2.33,1.78.35-.32.88.71,1.62-1.34-.28.28,1.12,1.69,1.43-.39,1.5,1.13,4.32,3.08,1.59,1.01,3.42.78-.05.82,2.45-1.87.95-1.39-.38-1.03.7-1.33-.25,1.91,2.04-1.65,1.05-.49,1.84-.97.52-1.29.1-.43-2.24-.99-.65v-.8s-2.43.1-2.43.1l-1.05-.88-1.31,1.21.53,1.57-1.19.4-.63,1.31,1.77.91.27,1.55-.86-.11.02.42,1.42.47-1.11.14.5.37-.83.75,1.1,1.03-1.05.38.44.34,1.91-.84-1.57,2.26.48.86,1.26.39.52,1.31.98.27-.32,1.14,1.26,1.13.25,3.1,2.91,1.68.4-1.54.35,1.01.98-.14.16.89,1.12.14.22-.9,1.44-.16,1.42-1.41,2.56-.21.25,2.82,1.13,1.54,1.16-.54.4.39.64,1.13-.21,1.52,1.36,2.24,1.48,1.31.9-.11.63,1.75-.83.89,1.02,1.03-.11.83,1.27.11.4.68,2.39-.66.41,2.57,1.99,1.48-.54,1.76.32,2.5h0l-.44-.17.03,4.46h0l.05,1.27-3.09,1.29-1.42-1.06.04-1.3-1.28-.75-1.26.25-1.41-3.01-2,.22-.63-.9-1.41.21-.55,1.46-1.38,1.11,1.26,1.37.26,3.27-1.26.68-.76-1.05-2,.26.03,1.29-1.53,1.28.32,1.3-1.12.41-.34-1.93-.76.03.26-.79-1.57-2.58-1.42-.2-3.12-.18-1.08,1.69.69.8-2.41,2.67-.88-.66-2.82.11-.3-.76-1,1.5-1.29-.91-.7.33-.49,1.93-1.15.62-2.7-2.29-1.62-.17-.86-1.33-1.36,1.09.04,1.66-1.21.4,1.2,2.87-.66,1.69-2.79,1.55.2,1.76-.86,1.41-1.13-.14-.26,1.91-1.28-.57-.37.47v.88l1.12,1.15-1.1,1.08.76.97-.65,1.5,1.28,1.12.04,1.7-1.04,1.36-1.25.43-1.34-.9-1.62,1.33,1.15.54.49.76-.38.64-1.73-.61-1.43.77-7.9-2.53-1.7.95-.41,1.35.8,1.26,1.15-.02-1.36,1.47-.7-.24h0l.05-1.31-2.14-2.89.79-2.73-2.18-.09-.77,1.68-2.55-.42-4.55,1.92-1.36-.31-.28,1.14-1.44-.82-1.61.61-.63-1.91-2.86.33-1.6-1.94-1.17.19-1.36-2.04-1.16-.39-.83.46-2.67-1.81-2.35.34-1.11-.76-.54-2.78-1.71-.99.16-.9-1.48-1.36-.2-1.18-1.6-.73.25-3.71,2.51-.49-3.17-3.19-.98-3.19.99-1.49,1.41-.15,1.04-1.02.77-2.79.82-.07-.86-2.11.62-1.52,1.13-.86,4.02.25-.42-1.65-1.62-.96-.48-2.83-.93-1.02,1.02-2.17-.76-1-3.14-1.45-1.14,1.14-2.11-.4-2.7-1.84-.14-.78-2.22-.87.18-1.83-.51-.31.95-1.35-1.23-1.91.61-.48-.3-1.02-3.19-.36-.54-3.29-.81-.23-.77-1.92,2.09-1.3.35-.95,2.78.16,1.15-1.37,3.58,1.5.08.56,1.98-.61v-2.02s2.37-.09,2.37-.09l.37-1.33,2.12-1.86,1.13.18,1.08-.65.85.99,1.88-2.3.64.09.47-2.31-1.12-2.88.86-.16.36-1.35,1.16-.61v-1.29s1.1-1.58,1.1-1.58l-3.28-1.77-.54-2.15h0l1.55-3.13.32,2.5.79-.6,2.7.94,2.1-2.64,2.46-.06,1.65-.78.84.59,3.11-2.49.82-1.38,1.08-.34,1.62.41,1.83-.99,1.77,1.1.11.76,1.24-.58,1.73,1.14,2.04-.33.6.54,4.29-3.05,2.32-.18.89.57.64-2.67,1.05-.21-1.6-3.28,1.46-2.49-.32-1.05-1.42-.53-1.5-2.72.61-4.43-.61-3.57h0l.63-.6.09-3.19,1.29-1.39,3.64.11.97-1.03.11-1.33,1.02-.73-.59-1.85.47-1.75,3.27-.76.49-1.26,1.68-.88-.11-1.31.69-1-1.2-2.88-1.29-1.59-1.5-.7,2.8-2.78,1.27.39,1.92-.76.65-1.69,1.69-.75.03-1.19,2.09-.87.41-1.32-1.27-.61.68-1.09.88-.07,1.75-1.69,3.42-.92Z"/>
  <path id="IT-75" class="cls-2" d="m460.24,404.12l3.38.66,4.31,3.28-.59,1.35,1.11,2.1-.07,1.41-.34,1.73-1.19,1.19-4.15,2.78-.25.95-7.37,4.61.13,5,2.2,4.15,3.04,2.2,8.23,3.81,2.62,2.05,7.11,2.68,7.4,4.47,8.72,2.78,1.46,1.26,1.58.04.4.66.83-.36.22.64,3.68,1.6,6.02,1.97,8.47,5.54,3.19,3.89,1.76.8,4,3.77,10.37,4.16,5.44,3.78,4.93.59.98,1.62-.43.75,3.15.11-.29.96,1.37,1.69-.47,1.79,1.98,2.44,2.09,1.91,5.16,2.88,8.24,8.83,1.76,3.92-.2,1.55,1.36,3.18,1.25.76-.45.42.52,1.45-1.51,1.39-.43,2.09-1.75,1.21-1.26,2.78-.77,4,.03,5.27-.97,1.37-1.06.28-3.36-2.6-4.48-.94-5.65-4.59-2.39-4.16,1.06-.44-.16-1.71-1.83-.98,1.33-.97.36-2.2-4.05-5.03.29-1.68-.9-1.92-2.21-1.84-7.97-1.17-7.71.6-2.77-2-2.37-.25-7.62-4.41-.98.03.26-.8,1.69-.74.19-1.3-1.19-1.44-2.01.1-.51-1.42-2.5-.94-3.35.5-3.07,1.67-3.14,2.78-1.87,3.08h0l-.68-1.63-1.54-1.29-.32-1.42-1.55-.94-1.49.39-.76-.83.84-1.83-1.02-.77.39-.71-.84-.89.38-2.54.55-.4-.81-1.81.79-3.17-1.07-1.24.9-.45-2.56-1.95-.47.66-1.03-.61-.15-.87-.88.56-1.48-.64-.1,1.53-.75-1.17-.85.23.06,1.66-1.79-2.17-3.06,3.55-1.34-.37-.68-1.53-5.77-5.3-2.58-5.67-1.76-.57-1.87,1.72-1.4-1.33-4.91-2.09-.53-.99,1.33.24,1.58-1.8-.27-1.36.56-.91-1.62-1.32-.54.37-.54-2.06-1.11-.26-.21-.9-1.53-.26-2.02-1.45-1.25.75-.71-.25.16.67-1.47.38.13.83-1.48.81-1.28-.93-2.2.79-4.08-.68-1.7.33-1.19,1.08.29,1.08h0l-3.16-1.58-1.38.12-1.84-1.58-1.49,1.13-2.49-1.05-.97.79-1.77-1.26-.64-1.66-1.38-.68.72-1.75,1.77-1.05-.75-2.09,1.41-.9-1.11-1.26-1.42.28-.91-1.3-3,.12-.18-1.91-2.61-.93-.54-2.3.74-1.03.93-.16-.47-1.05.72-.68-.16-.7-2.5-.7-1.59-2.49h0l-1.75-2.02-1.37-.59.63-4.9-.81-.71,1.1-1.33,2.85,1.32,1.16-2.12,1.84-.8.03-.73.68.68.6-1.32,1.81-.9-1.63-.74-.88-1.32.65-.46-.87-1.07.84-1.4-.72-2.57,1.87-2.69-.18-2.87h0l9.16.56,1.1.9,2.8.11,8.72-1.62,2.96.83,3.63-.18,11.15-2.02h0Z"/>
  <path id="IT-88" class="cls-2" d="m116.02,571.47l.48.84,1.98-.57,1.86,3.14-1,4.94-1.37.78-2.46-4.7-.49-2.5.99-1.92h0Zm-2.8-3.98l-.11,4.79-1.42.33-1.19-.83.04-1.48-1.35-.8,2.14-1.97,1.89-.04h0Zm64.11-101.72l.48.45-2.19,1.4-.47-.36,2.42-1.99-.25.51Zm-67.72-3.42l-.49.5-.05-.88s.54.38.54.38Zm4.22-8.47l.24.99,1.09.73-.64.65-.15,1.72-2.4-1.12-1.91,2.66.58-.17.72,1.42-.41,1.2-2.02-.25.87-2.17-.55-.08.14-.98,1.3-.54.76-1.41.84-.1-.47-1.71,2.02-.85h0Zm51.85-7.32l.76,1.34-1.09,1.83.76.2-2.02.31.96-3.79.64.11h0Zm-5.91-.57l.85.54-.93.83.08-1.36Zm-4.98-.4l2.21,1.82-.66,1.65.93.97,2.15-.15.24-1.12,1.1-.12.47,1.6.5.13,1.74.02-.86,1.12,1.11.19.79,1.21-.15,2.56,1.31-1.98-.25-1.01,2.19.12.27-1.01.81,1.09-.49.29.86.05-.24,1.08,1.17-.05.23.98-.88,1.33-.48-.59-.34.32.25,1.26-.73.46-.68,2.62.68-.04.15-1.19,1.55-.47-.47,1.98,1.16.05-.04-.72.4.26.43-.69,3.12,1.61-.61.65-1.91-.97-1.21,1.05.51.91-1.13,1.52.29.82-2.39-.35-.8.36.79.41,1.86.04.76.31-.33.36.85,1,1.3-1.8,1.11.21-1.3,1.65,1.97.97-.47,1.19,1.47-.32,1.84,1.27-.64.49-.88-.32-.36.85.5.68-.77.4-.12,1.11,2.07,2.05-.14,2.39,1.76,2.2-.54,2.25.56,2.24,1.62,1.51.25,1.59,1.46.91-2.76,8.05-3.46,2.95-2.85,4.87v3.01l1.2,3.56,1.77,2.38,1.81,1.05-.02,1.46-2.08,5.11.14,1.86,1.08.27.18.66-1.61,1.62.65,2.78-1.2,4.1.4,4.09-1.44,3.54.47,4.84-1.1,3.9.63,2.35-2.17,6.59.27,1.85,1.3,1.06-1.37.46-.94,1.44-.88,4.07.75,1.12-.95,2.62h-.9l-.81.99.11,1.14-.88-.74v-1.27l-.83-.32-2.13.72-6.36-5.24-3.9-.82-1.87,1.13-.42,1.5-2.25-1.81-1.87.83-2.23,2.77-.04,3.64,1.29,1.8-1.1,4.15-.48-.48-.64.32-6.23,6.27-1.11-.04-.88-1.15-.57.75-1.12-1.79-2.44-1.4-.15.91-2.42.6.25.91-.96.48.44,1.17-.76.25.25-1.77-1.8.1.64-2.9-2.23-2.03-.38-3.74-1.46-.84-2.56-.05.4-1.62-.62-1.36-.56-.53-.97.52-.04-2.56-3.06-3.28-.09-.86,2.63-2.46.47-1.21-.68-2.38-1.21-.43-.18-1.5-.72-.6,1.74-2.75-.04-1.04-1.31-.86.18-.88,2.99-4.43.8-3.23-.97-1.89.39-1.77-.54-.99.45-1.41-.44-2.92.6-.74,1.56,2.7.68-.05.3-1.82,1.42-2.42.35-3.76-1.33-2.43-2.12-.13-1.68,1.72-1.92-1.82-.22-3.94.9-2.59-1.6-.93,1.14-.95.44.61,1.88-.58,1.62-1.72.07-1.33-1.55-4.32,1.17-6.45-1.04-1.98-1.74-1.01-1.71-.1-.16-1.26,1-2.95-1.26-4.72-1.59-.56-1.7-5.3-2.38.47-.12.81-1.79.04-.02-1.55.66-.46-.96-1-1.59,2.5-.49-.16-.25-2.63,1.8-.83.95-2.79-1.37-.59-1.9-2.16,1.54-2.06-.25-1.7,1.19-1.04,1.62-4.44-2.11-2.93,1.23-2.11,1.51,1.09-.22,2.51,3.63,3.89,2.68.54,2-.33,1.7,1.25,4.78-.7,6-4.85,4.4-.65,3.64-4.14-.1-1.15,2.7-1.62,3.61-4.9,1.45-.78.57.64,2.27-.44.54-1.22,1.48-.06.72-.81-.67-1.68.59-1.91-1.13-.19.13-.83.92.62,1.26-.68.05.81,1.61-1.55h0Zm8.5-.58l1.28,2.07-.38,1.01-2.6.4-.4-1.11,1.3-.98-.11-.97.61.65.3-1.08h0Z"/>
  <path id="IT-82" class="cls-1" d="m299.56,644.23l-.83-2.88,1.16-.62-.33,3.5h0Zm140.06-25.99l2.13,1.42,2.41.58-2.42.67-1.33,1.1-.68,2.54.74-.15-3.62,6.67-8.57,11.18-.03,1.45-1.46.99.18.81-2.9,3.74-.33.98.64,1.51-.9,3.14-1.07,1.37.06,3.09-2.74,2.59-1.35,2.52.52,9.31,2.93,1.82,1.33.33.6-.59,2.32,2.84-.48.67-.83-.58-.17,1.47-.4-1.64-1.01.35-.29,2.82.88,2.05,1.2-.4.5.73-.69-.29-.33.49.59,1.43,1.26.71,1.53-.07.09,2.69-.95-.36-.08,1.4.61.39.85-.5,1.26,2.19-1.57-.7-1.13.46-.64,1.9-2.35.56-2.54,2.8-2.6,6.41,2.03,6.4-.4,1.01-.71-.44-1.56,1.48-2.81-2.98-2.71.49-1.98-1.69-1.63-.42-4.35,1.5-1.69-.93h-2.4s-2.36-2.25-2.36-2.25l-2.21-.88-4.28-.55-1.55-1.68-.72-3.06-2.82-5.06-5.29-5.36-4.38-2.06-4.31-.96-4.62.11-2.81.75-1.33-.38-2.37-2.41-3.24-.29-4.06-2.51-.83-1.86-3.93-3.22-1.33.34-.67-.74-2.72-.08-2.12-2.21-3.58-1.77-1.16-1.38-1.12-.08-.93-2.1-3.89-3.78-4-.68-2.56.61-2.6-3.91-2.02-.69-6.2-.22-4.72,1.17-3-4.57-1.91-1.21-2.04.13-1.95-2.26-.17-2.54-2.14-3.22,1.71-.98,1-3.17-1.25-1.89,1.82-2.55-.18-1.77,1.09-.48-1.3-1.41,1.33-.33,2.34-2.65,1.48.27,1.57-.62,1.06-1.06-.11-.98,2.27.09,1.19-1.71-.97-1.92.71-.93.3.75,1.39-.16.04,1.59.95.93-.04,1.41.99,1.77,4,3.1,3.95-1.09,4.02-2.5-1.12-2.9.86-.2.58-1.1-.35-.6,1.42-1.2,3.74,1.33,1.85-.76.39-1.19,1.54.23,1.91-1.41.58,1.48,1.64.98.45,1.89-.65,1,.92,1.29,2.89.81,1.98-.48.78-.98,1.31.37.03,2.63,1.36,1.56,6.53,3.53,2.44.38,4.33-1.18,3.79-2.24,3.39-.67,1.97,1.3,1.91.2,1.66-.84,6.33,1.26,3.85-.5,2.42-1.36,2.39.36,7.22-2.31,4.92-5.25,1.9.8,4.5-1.19,1.08-1.11,2.55,2.24h3.32s.74,1.4.74,1.4l1.72.35,3.42-1.88,1.98-2.24,1-2.79-.76-1.61.74-.05.61,1.34-.47,1.85,1.98.55,5.04-1.38,5.53-3.73,1.54-.12h0Z"/>
  <path id="IT-52" class="cls-2" d="m289.92,290.52l.07.14h0l.26.97-1.91.99-1.2-1.4.24-.98,2.43.02h0l.11.26h0Zm-114.82-34.82l3.16-1.84,2.99-4.71,4.7-.52,2.14.76.44,1.09.92.19-.47,2.31.99,1.11,3.76,2.58,2.14-.45,4.94,5.23,2.09-1.05,1.92,1.08,1.41.03,2.59,2.67,1.47-.25,1.07.59-.04,1.21,1.53,1.41.21,1.36,3,2.68,1.47-.37-.06-1.18.88-1.08,4.89.11,4.36,3.54,2,.45.6.8-.28.83.58.26,4.27-4.79.35.8-.54.91,1.36,1.01,2.42.28,2.93-1.27,2.71.78,2.23-.14-.22-.95-2.57-1.49.1-.83,3.5-.12,2-1.82.18-.94,2.19-.23,2.16-2.1,1.17,1.06.3,1.89,1.23.33,1.52,1.73,1.06.23.9-.88,2.28.47.18.91-1.27,1.84,2.34.32,4.8-.97-.3,2.36-1.78,1.92-.38,1.75-1.48.56.18.96-.59-.08-.22,1.01,1.91,1.83-.29,1.43,1.6,1.07-.24,2.69,3.14,1.76,1.76,2.12,4.1.18.46,1.14,1.19.16h0l.18.85,1.44.92h0l.93-.37,1.28.79.81-.22h0l.97,1.12,1.51-.79h0l1.25.14,1.26-.7,1.36,2.03.73-1.73,1.79.33,1.44-.78h0l.15.11h0l1.89.76,2.01,2.7-1.84.02.26,1.91-.81-.05-.54-3.27-.39,2.74-1.08.58-1.28-.25.18.71-.83.92-2.03.73,1.27,1.96h0l-2.18,2.75-.68,2.27-1.92-.16-.48.49-.15,1.55,2.29,1.3-.09.49-1.87.79-.89,1.49-.96-.3-1.5,1.53.29.88,1.88-.19.1,2.34,1.26-.47.57.53.89,2.01-.52,1.5.35.79,1.96.74.79-1.96,1.35,1.11-5.86,3.67-1.93-1.08-.72.32.44,1.17-.87,2.4-4.55,2.68-.43,1.16.77,2.14-.29,1.07.69,1.38.74-.92,1.12,1.19-2.13,8.65.96.66.13,1.59-1.12.07-1.71,2.05h0l-2.18-.12-1.42.94-.45,1.77-.61-1.16-1.05-.41-1.02,2.14,3.32,2.6-.91,2.07h-1.08s.36,2.29.36,2.29l.92.42.07.95-1.23.81-1.2-.17-.8,1.88-1.13-.22-1.32.97-.18.95-1.53.77-.71-.2-.59.78-1-.92-.54.29.4,1.55-1.2,1.7,2.45,1.68.08,3.01-5.97.07-1.62,3.64h0l-7.35-1.71-1.03-.83-2.4.63.11,1.3-.87.42-.2,1.07-1.6.13-1.19-1.49-1.42-.45-.39-2.27.86-1.08.75.76,1.97-.17.89-1.81.27-2.74-1.52-3.14-1.55.32-.86-2.53-.97-.94.18-.86-3.64-1.55-.82-3.27-1.94-2.01-3.89-1.56-2.98-.35-2.7-1.77,1.62-.99.12-3.21.78-1.13-.58-1.29-1.57-1.18-2.81-1.31-2.51-.27-3.28.51-.34,1.55-2.03-.68-.52-3.46,1.48-.7.98-5.45-.58-9.77-1.03-2.55-1.9-1.98-1.61-4.79-.95-.09-1.01-2.78-2.3-1.74-1.42-3.8.28-2.07-1.63-6.78.53-.77-.22-3.52-1.62-7.67-4.43-6.75-3.62-3.21-1.9-.91h0l1.96-2.23.24-1.21-2.08-1.29-1.56,1.32.43-1.08-.83-1.22-.17-2.07-3.45.12,1.09-1.74.66-.05-1.29-.9-1.83,1.54.38-2.4-.71-.61-.08-2.26-2.27-.93-3.54-2.75-.89-2.27-1.28.03h0Z"/>
  <path id="IT-32" class="cls-3" d="m288.54,80.54l1.52,1.19-1.02.72-.47,1.91-2.61.27-1.16,1.12.75,3.34,1.41,1.33-1.14,1.69,1.99.38,1.26,2.04,1.2-.94,1.55.36,1.39,2.83-.99,1.62-.05,2.04,3.18.57,1.2,3.74,4.43,2.56h0l-2.16.81-1.47,1.64-.77-.18.33,1.17-.45.4-1.11.05-.65-.78-2.63.83-1.06-.67-2.93,2.33-.1-1.98-1.36-.86-.73.25-3.45-2.7.26,2.05-1.33,2.35.15,1.31-2.16,3.44-.51-.68-1.02.05-1.04,1.04-1.38-.28-4.28,2.16-.11,1.44,2.7.37.53,1.22-2.02,2.39-.24,3.21-.71-.65-2.07,1.26,2.56,2.14.51,1.23-.59,1.67.69.61,1.9-.44.39,1.7.56-.36,1.06.52-.69,1.73,2.13,1.95-.54,1.41-.97-.39-1.5,3.47-3.68,1.28-1.96-.21-.66.68-.58-.68-2.41.76v1.77s.81,1.34.81,1.34l-1.81.54.65.6-.64.71,1,1.77-.8,1.64-3.7-.26-.47-2.47-1.66-.53-1.89.25-2.41,1.99-3.18-.2.33,2.5-1.13.14-.6,1.35.31.87-2.18-1.18-.06-.68.02,1.19-2.13-.16-.76,4.31-2.06,2.49.53,2.07-1.36-.13.11,3.16-2.2,2.96-1.41-.18-1.69-1.62-1.44.77-.39-1.03-1.62,2.33-.43-.91-1.32,1.48-1.31-.82.57-1-1.8-.89h-1.92s1.92-3.55,1.92-3.55l-.68-1.33,1.12-.97-2.35-1.46h0l-3.48-.68-.34.76-1.12-.87-3.52.71-.42,1.89-1.73.05-1.89,1.18-1.16-.11-.36-.76.61-1.22-1.98-.84-.46-3.78.8-1.84-1.14-1.75.14-1.78-1.53-.28-.04-.88.5-1.61,1.05-.83-.32-1.67,2.92-3.57.82-3.88-.93-1.4,1.99-3.65-.45-1.87-.71-.41.77-1.12-.53-1.77-2.32-1.12,2.27-2.23,1.73-.11,1.31-1.37-.74-1.21.2-1.93-.9-1.19-2.32-1.55-3.31-.26-1-2.36h0l.88-.78.78-4.45-2-1.83-2.01.27-.74-3.21,1.35-1.68-.66-1.54,1.92-1.53-1.07-2.26,1.26-.7,1.28-3.64.98.79,2.46-.18-.32.77,5.35-2.49,1.19.68v.89s2.78,1.13,2.78,1.13l.4.71-1.54,2.32,1.18.2,1.43-.72,1.23,1.33,1.04-.43,2.18,1.27,1.46-.76,4.61.49.83-2.51,2.01-1.05-.54-2.14,1.26-2.3-.12-1.58.79-1.14,1.15.16,1.04-.77.12-1.71,1.1-.32.81.54,5.07-1.96.75.51.94-.41,2.1,1.71,1.64-.69,1.76-2.39,2.57,1.86,3.69-1.97,2,1.33,2.11.05.76,1.25.9.25,1.56-1.45,2.45-.11,3.53-2.72,1.41-.07,1.26-1.01,1.96.17.88-.97,1.61.17,1-1.26.94.34,2.97-1.26.96.39Z"/>
  <path id="IT-55" class="cls-2" d="m298.72,303.84l-.46-.51h0l-.17-.05h0l.21-.6.58.27h0l.09.47h0l-.25.42Zm-9.69-1.3l.62,1.03,2.71-.04.31.49,1.83-1.48,1.65-.11-.45.68.42,1.26-2.56,2.37,1.19,1.25,1.26-.64,1.12,1.52,1.25-1.84.87.11.73,1.25.81.04.25-.76.8.37,5.59,6.4,1.87-1.13,1.96.72,1.16-2.36,1.83.49-.32,1.77.79.74-1.58,1.48.04.74,1.99,2.6.33,2.56-.54.61,1.65,1.18.59,3,1.22.61-.12,2.55-1.42,1.36.59,1.35,1.82.37.5,1.5-.21,2.43.66,1.85-.76.58.83,1.71-.49,1.31,2.36,1.41.18.76.97.11.11,3.55,1.06-1.19.02-1.5,1.14.68,1.23-1.22,2.64,2.02,2.2,3.46,2.34-.54,1.1-1.6,1.24,3.18-.22,1.6-.81,1.67-.33-.68-1.69.68-.22,1.76h0l-.66,3.92-1.17,1.12-1.42-.56-.04.68-2.46,1.51-1.81-.95-.62,1.34-2.85-.04-.69.85-1.77-.87-.51,1.03.54,2.24-1.84.59-1.62,1.43-1.8-.09-.15,1.17-2.69.77,1.2,1.79-2.63,1.73-1.05.04-.78-1.62-1.05.07-.19,3.41-3.8,2.95-.76-.88.04-1.48-3.2.47.85-1.25-2.01-.69.02-1.81.6-.2-.65-.6.22-1.63-1.29-.14-1.76,1.42-1.08-1.11-1.64.19.61-.4-1.33-.7.66-.59-.91-.75.18-1.71-1.47-.68-.48-3.93-1.47-1.81-1.42-.6-1.21,1.05-.59-.18-.11.66-.89-.94-3.23,1.15-3.64-2.25-1.13-1.85,1.62-.91.89-1.74-2.44-1.57-1.42-3.41h0l1.71-2.05,1.12-.07-.13-1.59-.96-.66,2.13-8.65-1.12-1.19-.74.92-.68-1.38.29-1.07-.77-2.13.43-1.16,4.55-2.68.88-2.4-.44-1.16.73-.32,1.93,1.08,5.86-3.67-1.35-1.11-.79,1.96-1.96-.74-.34-.79.52-1.5-.89-2.01-.57-.53-1.25.47-.1-2.34-1.88.19-.29-.88,1.5-1.53.96.3.89-1.49,1.87-.79.09-.49-2.29-1.3.15-1.55.48-.49,1.92.16.68-2.27,2.09-2.85h0Z"/>
  <path id="IT-23" class="cls-2" d="m80.28,152.33l.51,1.03,3.35-.47.8,1.3,1.16.47.56,1.69,1.41-1.01,2.17,1.41,1.03-.58,1.82.64h0l.61,3.57-.61,4.43,1.5,2.72,1.42.53.32,1.05-1.46,2.49,1.6,3.28-1.05.21-.64,2.67-.89-.57-2.32.18-4.29,3.05-.6-.54-2.04.33-1.73-1.14-1.24.58-.11-.76-1.77-1.1-1.83.99-1.62-.41-1.08.34-.82,1.38-3.11,2.49-.84-.59-1.65.78-2.46.06-2.1,2.64-2.7-.94-.79.6-.32-2.5-1.55,3.13h0l-2.39-.34.24-1.43-2.45-.67-.2-4.44-.83-.88,1.03-3.33-1.53-.92-2.28.16-.46-1.27-2.15-.81-2.21-2.56.32-1.05-.67-2.59.89-3.64,1.05-.3.87.56.64-1.05,1.57.54,1.31-.41.47-.9,2.03-.71.28-1.81,1.81-1.53,2.78,4.22,2.26-1.36,1.63,1.32,1.09-1.85,1.87-.05,1.61-2.13,4.14,1.62,3.91-2.46-.04-.87,1.19-.92,1.95.37.26-1.87,1.39-.06Z"/>
  <path id="IT-34" class="cls-2" d="m304.06,218.19l-1.19.68.83-.92-.79-.32,1.41-.16-.25.73h0Zm-1.44-1.84l1.05.79-2.08.47.54-1.54.49.28Zm-.32-108.96l2.49,1.71,4.87-.49,1.82.65.78.96h0l-.17,1.58.85,1.46-.61,1.99.77,1.02-2.24.05-3.04,1.91-.11.83,1.08.7.35,1.53-1.6-.68-.91.69-1.62-.69-1.38,1.1-.36-.38-1.3,1.79-.25,1.54-1.76,1.55.28,1.22-.53-.24.16.53-1.61.82-.29,1.77-1.68-.24-.91.74.04,1.75-1.58,1.66,1.86,2.5h1.83s.23,1.38.23,1.38l1.62-.09.26,1.87,2.13,1.71-.4,3.14-2.55,1.72-1.55,2.47.81.7.62,2.28.02,3.05,1.26.04.92,1.33h1.3s1.11,3.99,1.11,3.99l1.22,1.11-.18,1.05,1.76.92.6-1.41,1.09.58.11.79.98.46.04,1.42,3.41-3.15.59.6,1.74-1.84.99.74-.38.88.55.64.48-.91,1.91-.95.56.06-.35.97,1.1,1,1.33-.83.43.96,1.36-.44-.4-1.24.52-.21.51,1.39-.04.27.35.32-.15.72.72.31-.96.56,1.78,1.69-.43.23.57,1.14-.31,1.03.85-.62.5,2.34.69.18-.32.7.89.71-.15,1.16.86-.11-.11.54.94.53h0l-.49.68-4.32.3.08-.66-.8-.31-.42,1.19-2.63.34-.83,1.13-5.5,3.43-13.98,6.51-1.34,1.73-1.47-.74-1.69,2.27-1.26,2.47-.09.95.73.34-.95.35-1.37,5.7,1.19.37-.95.94.5,2.21,1.12,1.27-.25,4.65,1.26,1.07,1.39,2.72-.45-.3-.7.83.8.49.76-.55-.21.97.45.12.48-.27-.39-1.55.43.03,3.78,4.72-.58,3.93-.94.86.04,2.5-1.41-.48.3-2.51-.9-.39-.81.33-.66,1.51.76.96-.33,1.82.68.58.57-.4.05.63-1.16-.11-.1,1.26-2.12-1.69h0l-.53-1.91-1.75-.45-.56-.83-.29-2.54.55-1.09-.73-.95h-.95s-1.28,1.14-1.28,1.14l-1.89-.15-.71-.92-1.3.85-2.01-2.7-5.88-.94-1.93.68-5.51-.07-2.56,1.19-.65,1.95-2.8.79-1.77,1.67-1.09.11-.62-.21-.38-1.42-1.84-1.24-5.01.33-.14-1.31h0l-.2-.9-7.01-3.76v-2.16l-1.25.75-2.75-1.02.52-1.42-.36-.89,1.12-.9-2.63-.98-.82,1.48-1.19-.64-.21,1.12-1.05-.19-2.04-1.71.84-1.65-.76-.48-1.41.28.33-1.5-.69-1.07-2.52-1.14.09-1.14-1.6-.42-.1-.6-2.32-.52-.98-2.06-1.72-1.69-2.12,1.77-.45-.87-1.31-.33.6-1.68-.87-1.31,1.14-.85-.84-.66.84-2.26-2.16-.99-.61.71-.73-.16.36-1.74-.99-10.32,9.74-14.49h0l2.35,1.46-1.12.97.68,1.33-1.91,3.54h1.91s1.8.9,1.8.9l-.57.99,1.31.82,1.31-1.48.43.92,1.62-2.34.39,1.03,1.44-.77,1.69,1.62,1.41.18,2.2-2.96-.11-3.16,1.36.13-.53-2.08,2.06-2.49.76-4.3,2.13.16-.02-1.19.06.68,2.18,1.18-.31-.86.6-1.35,1.13-.14-.32-2.49,3.18.2,2.41-1.98,1.89-.25,1.66.53.47,2.47,3.7.26.8-1.64-1-1.77.64-.7-.64-.6,1.81-.53-.82-1.35v-1.77s2.41-.76,2.41-.76l.59.68.65-.68,1.97.21,3.67-1.28,1.5-3.47.97.39.53-1.41-2.13-1.95.69-1.73-1.06-.51-.56.36-.39-1.7-1.9.44-.69-.61.6-1.66-.51-1.24-2.56-2.13,2.07-1.26.71.65.24-3.21,2.02-2.38-.52-1.22-2.7-.37.11-1.45,4.28-2.16,1.38.29,1.03-1.04,1.02-.06.51.68,2.17-3.44-.15-1.3,1.33-2.36-.27-2.05,3.46,2.7.73-.25,1.36.86.1,1.98,2.93-2.33,1.06.67,2.62-.83.66.78,1.11-.05.45-.4-.33-1.16.76.18,1.47-1.65,2.17-.81h0l1.24-.08h0Z"/>
</svg>