<?xml version="1.0" encoding="UTF-8"?>
<svg id="Livello_14" data-name="Livello 14" xmlns="http://www.w3.org/2000/svg" viewBox="0 0 7257.9 3223.09">
  <defs>
    <style>
      .cls-1 {
        font-family: RalewayRoman-Black, Raleway;
        font-size: 173.57px;
        font-variation-settings: 'wght' 900;
        font-weight: 800;
      }

      .cls-2 {
        stroke-width: 0px;
      }

      .cls-3 {
        letter-spacing: .01em;
      }

      .cls-4 {
        fill: #fff;
        stroke: #000;
        stroke-miterlimit: 10;
        stroke-width: 4.18px;
      }

      .cls-5 {
        letter-spacing: .04em;
      }
    </style>
  </defs>
  <g>
    <path class="cls-2" d="m2031.32,2865.03c5.78-4.81,11.27.24,18.61,1.83,10.2,2.22,19.18.22,27.89-5.55,27.42-18.15,55.03-36.02,82.66-53.85,3.57-2.3,4.05-4.01,1.18-7.26-6.02-6.82-59.8-71.55-64.44-77-3.96-4.65-9.19-5.25-15.16-5.11,6.7-7.43,16.23-9.63,20.85-8.48,2.59.64,92.9,57.07,101.7,62.79,4.15,2.7,8.2,1.56,12.47-.15,19.13-7.68,38.31-15.22,57.55-22.63,3.66-1.41,7.63-2.01,11.45-2.98.3.45.6.89.9,1.34-1.42,1.74-2.58,3.8-4.29,5.17-16.93,13.51-33.75,27.19-51.07,40.19-5.79,4.35-8.86,8.71-8.2,16.11.9,10.08,1.56,119.28-11.02,125.44-1.71.84-3.21,2.09-5.25,3.15,9.57-12.16-29.76-110.32-29.85-110.58-1.18-3.58-66.41,27.18-96.58,41.9-7.73,3.77-13.39,9.36-16.44,17.51-3.01,8.02-5.58,14.92-11.41,16.85l-21.52-38.67Z"/>
    <path class="cls-2" d="m1504.82,3059.17s-331.48,319.01-885.86,66.97c-25.82-11.42,396.5,193.46,885.86-66.97Z"/>
    <text class="cls-1" transform="translate(469.88 3079.86) scale(1.2 1)"><tspan class="cls-5" x="0" y="0">MOND</tspan><tspan class="cls-3" x="563.91" y="0">O</tspan><tspan class="cls-5" x="698.77" y="0">VIAGGI</tspan></text>
  </g>
  <path class="cls-4" d="m2018.34,2832.58c5.78-4.81,11.27.24,18.61,1.83,10.2,2.22,19.18.22,27.89-5.55,27.42-18.15,55.03-36.02,82.66-53.85,3.57-2.3,4.05-4.01,1.18-7.26-6.02-6.82-59.8-71.55-64.44-77-3.96-4.65-9.19-5.25-15.16-5.11,6.7-7.43,16.23-9.63,20.85-8.48,2.59.64,92.9,57.07,101.7,62.79,4.15,2.7,8.2,1.56,12.47-.15,19.13-7.68,38.31-15.22,57.55-22.63,3.66-1.41,7.63-2.01,11.45-2.98.3.45.6.89.9,1.34-1.42,1.74-2.58,3.8-4.29,5.17-16.93,13.51-33.75,27.19-51.07,40.19-5.79,4.35-8.86,8.71-8.2,16.11.9,10.08,1.56,119.28-11.02,125.44-1.71.84-3.21,2.09-5.25,3.15,9.57-12.16-29.76-110.32-29.85-110.58-1.18-3.58-66.41,27.18-96.58,41.9-7.73,3.77-13.39,9.36-16.44,17.51-3.01,8.02-5.58,14.92-11.41,16.85l-21.52-38.67Z"/>
  <path class="cls-4" d="m610.74,3122.99c-5.56-2.33-7.26-3.26-4.76-2.15,1.59.72,3.18,1.44,4.76,2.15Z"/>
  <g>
    <path class="cls-4" d="m579.36,3075.61v-64.91l-24.79,45.65h-21.66l-24.78-45.65v64.91h-40.61v-123.23h44.36l31.87,57.97,32.07-57.97h44.15v123.23h-40.61Z"/>
    <path class="cls-4" d="m720.37,3076.48c-11.25,0-21.45-1.76-30.62-5.29-9.16-3.53-17.05-8.27-23.64-14.23-6.6-5.96-11.66-12.67-15.2-20.13-3.54-7.46-5.31-15.19-5.31-23.17s1.87-16.02,5.62-23.43c3.75-7.4,8.99-14.03,15.72-19.87,6.73-5.84,14.72-10.44,23.95-13.8,9.23-3.36,19.33-5.03,30.3-5.03s21.45,1.76,30.62,5.29c9.16,3.53,17.01,8.3,23.54,14.32,6.52,6.02,11.56,12.76,15.1,20.22s5.31,15.13,5.31,23-1.84,15.85-5.52,23.26c-3.68,7.41-8.89,14.03-15.62,19.87-6.74,5.84-14.68,10.47-23.85,13.89-9.16,3.41-19.3,5.12-30.41,5.12Zm-33.53-62.48c0,4.17.69,8.19,2.08,12.06,1.39,3.88,3.47,7.35,6.25,10.41,2.78,3.07,6.28,5.5,10.52,7.29,4.23,1.8,9.27,2.69,15.1,2.69s10.9-.92,15.2-2.78c4.3-1.85,7.81-4.37,10.52-7.55,2.71-3.18,4.72-6.71,6.04-10.59,1.32-3.88,1.98-7.84,1.98-11.89s-.7-8.16-2.08-11.98c-1.39-3.82-3.47-7.26-6.25-10.33-2.78-3.06-6.32-5.47-10.62-7.2-4.31-1.74-9.3-2.6-15-2.6s-10.87.93-15.1,2.78c-4.24,1.85-7.74,4.31-10.52,7.38-2.78,3.07-4.83,6.54-6.14,10.41-1.32,3.88-1.98,7.84-1.98,11.89Z"/>
    <path class="cls-4" d="m862,3015.04v60.57h-40.61v-123.23h31.66l59.36,62.66v-62.66h40.61v123.23h-32.28l-58.73-60.57Z"/>
    <path class="cls-4" d="m986.75,3075.61v-123.23h56.86c16.38,0,30.1,2.75,41.13,8.24,11.04,5.5,19.37,12.9,24.99,22.22,5.62,9.32,8.44,19.64,8.44,30.98,0,12.5-3.09,23.37-9.27,32.63-6.18,9.26-14.86,16.43-26.04,21.52-11.18,5.09-24.26,7.64-39.26,7.64h-56.86Zm90.19-61.79c0-6.36-1.32-11.95-3.96-16.75-2.64-4.8-6.46-8.53-11.46-11.19-5-2.66-10.97-3.99-17.91-3.99h-16.25v64.22h16.25c7.08,0,13.09-1.39,18.02-4.17,4.93-2.78,8.71-6.62,11.35-11.54,2.64-4.92,3.96-10.44,3.96-16.58Z"/>
    <path class="cls-4" d="m1210.86,3076.48c-11.25,0-21.45-1.76-30.62-5.29-9.16-3.53-17.05-8.27-23.64-14.23-6.6-5.96-11.66-12.67-15.2-20.13-3.54-7.46-5.31-15.19-5.31-23.17s1.87-16.02,5.62-23.43c3.75-7.4,8.99-14.03,15.72-19.87,6.73-5.84,14.72-10.44,23.95-13.8,9.23-3.36,19.33-5.03,30.3-5.03s21.45,1.76,30.62,5.29c9.16,3.53,17.01,8.3,23.54,14.32,6.52,6.02,11.56,12.76,15.1,20.22s5.31,15.13,5.31,23-1.84,15.85-5.52,23.26c-3.68,7.41-8.89,14.03-15.62,19.87-6.74,5.84-14.68,10.47-23.85,13.89-9.16,3.41-19.3,5.12-30.41,5.12Zm-33.53-62.48c0,4.17.69,8.19,2.08,12.06,1.39,3.88,3.47,7.35,6.25,10.41,2.78,3.07,6.28,5.5,10.52,7.29,4.23,1.8,9.27,2.69,15.1,2.69s10.9-.92,15.2-2.78c4.3-1.85,7.81-4.37,10.52-7.55,2.71-3.18,4.72-6.71,6.04-10.59,1.32-3.88,1.98-7.84,1.98-11.89s-.7-8.16-2.08-11.98c-1.39-3.82-3.47-7.26-6.25-10.33-2.78-3.06-6.32-5.47-10.62-7.2-4.31-1.74-9.3-2.6-15-2.6s-10.87.93-15.1,2.78c-4.24,1.85-7.74,4.31-10.52,7.38-2.78,3.07-4.83,6.54-6.14,10.41-1.32,3.88-1.98,7.84-1.98,11.89Z"/>
    <path class="cls-4" d="m1334.58,2952.38l28.95,84.18,28.53-84.18h42.7l-51.03,123.23h-40.41l-51.65-123.23h42.9Z"/>
    <path class="cls-4" d="m1494.95,2952.38v123.23h-22.8c-4.17,0-8.23,1.35-11.58,3.84-94.25,70.1-397.27,247.02-849.66,43.62,51.07,21.38,417.73,157.68,843.41-50.07v-120.61h40.62Z"/>
    <path class="cls-4" d="m1562.85,2952.38h45.4l47.07,123.23h-41.24l-7.65-24.13h-41.78l-7.65,24.13h-41.45l47.28-123.23Zm36.45,76.54l-13.74-43.39-13.74,43.39h27.49Z"/>
    <path class="cls-4" d="m1809.87,3010v65.6h-33.53v-10.27c-10.62,7.43-22.77,11.15-36.45,11.15-9.58,0-18.71-1.42-27.39-4.26-8.68-2.83-16.35-7-23.01-12.49-6.67-5.49-11.91-12.15-15.72-19.96-3.82-7.8-5.73-16.75-5.73-26.81,0-8.68,1.94-16.72,5.84-24.13,3.88-7.41,9.27-13.91,16.14-19.52,6.87-5.61,14.89-9.98,24.06-13.11,9.16-3.12,19.09-4.68,29.78-4.68,13.33,0,25.41,2.4,36.24,7.2,10.83,4.81,18.88,11.38,24.16,19.7l-30.2,19.26c-2.91-4.86-7.29-8.76-13.12-11.71-5.84-2.96-12.01-4.43-18.54-4.43-4.86,0-9.31.81-13.33,2.43-4.03,1.62-7.53,3.88-10.52,6.77-2.99,2.89-5.28,6.33-6.87,10.32-1.6,4-2.39,8.37-2.39,13.11s.84,9.26,2.5,13.19c1.67,3.93,3.99,7.31,6.98,10.14,2.99,2.84,6.56,5.04,10.73,6.6,4.17,1.56,8.82,2.34,13.96,2.34,6.52,0,12.78-1.36,18.74-4.07,4.5-2.05,8.69-4.74,12.56-8.08h-25.68v-24.3h60.82Z"/>
    <path class="cls-4" d="m1972.11,3010v65.6h-33.53v-10.27c-10.63,7.43-22.77,11.15-36.45,11.15-9.58,0-18.71-1.42-27.39-4.26-8.67-2.83-16.35-7-23.01-12.49-6.66-5.49-11.91-12.15-15.72-19.96-3.82-7.8-5.72-16.75-5.72-26.81,0-8.68,1.94-16.72,5.83-24.13,3.89-7.41,9.27-13.91,16.14-19.52,6.87-5.61,14.9-9.98,24.06-13.11,9.16-3.12,19.09-4.68,29.78-4.68,13.33,0,25.42,2.4,36.24,7.2,10.83,4.81,18.89,11.38,24.16,19.7l-30.2,19.26c-2.91-4.86-7.29-8.76-13.12-11.71-5.83-2.96-12.01-4.43-18.53-4.43-4.87,0-9.31.81-13.33,2.43-4.03,1.62-7.54,3.88-10.52,6.77-2.99,2.89-5.29,6.33-6.87,10.32-1.6,4-2.4,8.37-2.4,13.11s.84,9.26,2.51,13.19c1.66,3.93,3.99,7.31,6.98,10.14,2.98,2.84,6.56,5.04,10.72,6.6,4.17,1.56,8.82,2.34,13.96,2.34,6.53,0,12.78-1.36,18.75-4.07,4.5-2.05,8.68-4.74,12.56-8.08h-25.68v-24.3h60.81Z"/>
    <path class="cls-4" d="m2000.44,3075.61v-123.23h40.61v123.23h-40.61Z"/>
  </g>
</svg>