<?xml version="1.0" encoding="UTF-8"?>
<svg id="Livello_14" data-name="Livello 14" xmlns="http://www.w3.org/2000/svg" viewBox="0 0 8463.19 3729.19">
  <defs>
    <style>
      .cls-1 {
        letter-spacing: .04em;
      }

      .cls-2 {
        fill: #fff;
      }

      .cls-2, .cls-3 {
        stroke: #000;
        stroke-miterlimit: 10;
        stroke-width: 11.72px;
      }

      .cls-4 {
        stroke-width: 0px;
      }

      .cls-5 {
        letter-spacing: .01em;
      }

      .cls-3 {
        fill: #cffffe;
      }

      .cls-6 {
        font-family: RalewayRoman-Black, Raleway;
        font-size: 486.74px;
        font-variation-settings: 'wght' 900;
        font-weight: 800;
      }
    </style>
  </defs>
  <g>
    <path class="cls-4" d="m4391.3,2725.08c16.2-13.49,31.6.66,52.18,5.14,28.6,6.22,53.78.6,78.21-15.57,76.9-50.9,154.31-101.02,231.81-151.01,10-6.45,11.35-11.24,3.3-20.35-16.89-19.12-167.7-200.64-180.72-215.94-11.1-13.03-25.78-14.72-42.52-14.32,18.78-20.84,45.51-27.01,58.46-23.79,7.26,1.81,260.51,160.05,285.19,176.09,11.64,7.57,23,4.38,34.97-.42,53.65-21.52,107.44-42.68,161.38-63.47,10.26-3.95,21.39-5.64,32.12-8.37.84,1.25,1.67,2.5,2.51,3.74-3.98,4.87-7.23,10.65-12.04,14.49-47.48,37.9-94.64,76.25-143.22,112.7-16.24,12.19-24.85,24.43-23,45.17,2.52,28.26,4.37,334.51-30.9,351.78-4.79,2.34-8.99,5.87-14.73,8.85,26.85-34.11-83.46-309.38-83.7-310.11-3.3-10.05-186.22,76.22-270.85,117.49-21.67,10.57-37.54,26.25-46.11,49.1-8.44,22.5-15.66,41.85-31.99,47.25l-60.36-108.45Z"/>
    <path class="cls-4" d="m2914.82,3269.5s-929.58,894.6-2484.26,187.82c-72.4-32.02,1111.91,542.54,2484.26-187.82Z"/>
    <text class="cls-6" transform="translate(12.49 3327.54) scale(1.2 1)"><tspan class="cls-1" x="0" y="0">MOND</tspan><tspan class="cls-5" x="1581.4" y="0">O</tspan><tspan class="cls-1" x="1959.6" y="0">VIAGGI</tspan></text>
  </g>
  <path class="cls-3" d="m4354.89,2634.07c16.2-13.49,31.6.66,52.18,5.14,28.6,6.22,53.78.6,78.21-15.57,76.9-50.9,154.31-101.02,231.81-151.01,10-6.45,11.35-11.24,3.3-20.35-16.89-19.12-167.7-200.64-180.72-215.94-11.1-13.03-25.78-14.72-42.52-14.32,18.78-20.84,45.51-27.01,58.46-23.79,7.26,1.81,260.51,160.05,285.19,176.09,11.64,7.57,23,4.38,34.97-.42,53.65-21.52,107.44-42.68,161.38-63.47,10.26-3.95,21.39-5.64,32.12-8.37.84,1.25,1.67,2.5,2.51,3.74-3.98,4.87-7.23,10.65-12.04,14.49-47.48,37.9-94.64,76.25-143.22,112.7-16.24,12.19-24.85,24.43-23,45.17,2.52,28.26,4.37,334.51-30.9,351.78-4.79,2.34-8.99,5.87-14.73,8.85,26.85-34.11-83.46-309.38-83.7-310.11-3.3-10.05-186.22,76.22-270.85,117.49-21.67,10.57-37.54,26.25-46.11,49.1-8.44,22.5-15.66,41.85-31.99,47.25l-60.36-108.45Z"/>
  <path class="cls-2" d="m407.51,3448.49c-15.58-6.53-20.36-9.14-13.36-6.04,4.45,2.02,8.91,4.04,13.36,6.04Z"/>
  <g>
    <path class="cls-3" d="m319.52,3315.62v-182.04l-69.51,128.01h-60.75l-69.51-128.01v182.04H5.86v-345.59h124.41l89.37,162.57,89.95-162.57h123.82v345.59h-113.89Z"/>
    <path class="cls-3" d="m714.94,3318.06c-31.54,0-60.16-4.94-85.86-14.85-25.7-9.9-47.8-23.2-66.29-39.92-18.5-16.71-32.71-35.53-42.64-56.46-9.93-20.93-14.89-42.59-14.89-64.98s5.26-44.94,15.77-65.71c10.51-20.76,25.21-39.34,44.1-55.73,18.88-16.38,41.27-29.28,67.17-38.7,25.89-9.41,54.22-14.12,84.99-14.12s60.16,4.95,85.86,14.85c25.7,9.9,47.69,23.29,66,40.16,18.3,16.88,32.42,35.78,42.35,56.71,9.93,20.93,14.89,42.43,14.89,64.49s-5.16,44.46-15.48,65.22c-10.32,20.77-24.92,39.35-43.81,55.73-18.89,16.39-41.18,29.37-66.88,38.94-25.7,9.58-54.13,14.36-85.28,14.36Zm-94.04-175.23c0,11.68,1.94,22.96,5.84,33.83,3.89,10.88,9.73,20.61,17.52,29.2,7.79,8.6,17.61,15.42,29.5,20.44,11.87,5.04,25.99,7.54,42.35,7.54s30.56-2.59,42.64-7.79c12.07-5.19,21.91-12.24,29.5-21.17,7.59-8.92,13.23-18.82,16.94-29.69,3.7-10.87,5.55-21.98,5.55-33.34s-1.95-22.88-5.84-33.58c-3.9-10.71-9.74-20.36-17.52-28.96-7.79-8.59-17.72-15.33-29.79-20.2-12.07-4.87-26.09-7.3-42.06-7.3s-30.47,2.6-42.34,7.79c-11.88,5.2-21.71,12.09-29.5,20.69-7.79,8.6-13.53,18.34-17.23,29.2-3.7,10.88-5.55,21.99-5.55,33.34Z"/>
    <path class="cls-3" d="m1112.11,3145.75v169.87h-113.9v-345.59h88.78l166.46,175.72v-175.72h113.9v345.59h-90.53l-164.71-169.87Z"/>
    <path class="cls-3" d="m1461.98,3315.62v-345.59h159.46c45.94,0,84.4,7.71,115.36,23.12,30.95,15.41,54.32,36.18,70.09,62.3,15.77,26.13,23.66,55.09,23.66,86.89,0,35.04-8.67,65.55-25.99,91.51-17.33,25.97-41.67,46.08-73.01,60.36-31.35,14.28-68.05,21.42-110.1,21.42h-159.46Zm252.91-173.28c0-17.84-3.71-33.5-11.1-46.97-7.4-13.46-18.11-23.93-32.12-31.39-14.02-7.46-30.77-11.19-50.23-11.19h-45.56v180.09h45.56c19.86,0,36.7-3.89,50.52-11.68,13.82-7.79,24.43-18.57,31.83-32.37,7.39-13.79,11.1-29.28,11.1-46.48Z"/>
    <path class="cls-3" d="m2090.45,3318.06c-31.54,0-60.16-4.94-85.86-14.85-25.7-9.9-47.8-23.2-66.29-39.92-18.5-16.71-32.71-35.53-42.64-56.46-9.93-20.93-14.89-42.59-14.89-64.98s5.26-44.94,15.77-65.71c10.51-20.76,25.21-39.34,44.1-55.73,18.88-16.38,41.27-29.28,67.17-38.7,25.89-9.41,54.22-14.12,84.99-14.12s60.16,4.95,85.86,14.85c25.7,9.9,47.69,23.29,66,40.16,18.3,16.88,32.42,35.78,42.35,56.71s14.89,42.43,14.89,64.49-5.16,44.46-15.48,65.22c-10.32,20.77-24.92,39.35-43.81,55.73-18.89,16.39-41.18,29.37-66.88,38.94-25.7,9.58-54.13,14.36-85.28,14.36Zm-94.04-175.23c0,11.68,1.94,22.96,5.84,33.83,3.89,10.88,9.73,20.61,17.52,29.2,7.79,8.6,17.61,15.42,29.5,20.44,11.87,5.04,25.99,7.54,42.35,7.54s30.56-2.59,42.64-7.79c12.07-5.19,21.91-12.24,29.5-21.17,7.59-8.92,13.23-18.82,16.94-29.69,3.7-10.87,5.55-21.98,5.55-33.34s-1.95-22.88-5.84-33.58c-3.9-10.71-9.74-20.36-17.52-28.96-7.79-8.59-17.72-15.33-29.79-20.2-12.07-4.87-26.09-7.3-42.06-7.3s-30.47,2.6-42.34,7.79c-11.88,5.2-21.71,12.09-29.5,20.69-7.79,8.6-13.53,18.34-17.23,29.2-3.7,10.88-5.55,21.99-5.55,33.34Z"/>
    <path class="cls-3" d="m2437.4,2970.04l81.19,236.07,80.02-236.07h119.74l-143.1,345.59h-113.31l-144.85-345.59h120.32Z"/>
    <path class="cls-3" d="m2887.13,2970.04v345.57h-63.93c-11.7,0-23.07,3.77-32.46,10.76-264.3,196.58-1114.09,692.74-2382.73,122.33,143.23,59.97,1171.47,442.19,2365.23-140.41v-338.25h113.9Z"/>
    <path class="cls-3" d="m3077.55,2970.04h127.33l132,345.59h-115.65l-21.44-67.66h-117.16l-21.44,67.66h-116.23l132.59-345.59Zm102.21,214.65l-38.54-121.68-38.54,121.68h77.08Z"/>
    <path class="cls-3" d="m3770.28,3131.63v183.98h-94.04v-28.8c-29.79,20.83-63.86,31.26-102.21,31.26-26.87,0-52.47-3.98-76.81-11.95-24.34-7.94-45.85-19.63-64.54-35.04-18.69-15.41-33.4-34.07-44.09-55.98-10.72-21.88-16.08-46.96-16.08-75.17,0-24.34,5.45-46.9,16.38-67.67,10.87-20.77,25.99-39.02,45.26-54.75,19.28-15.73,41.75-27.98,67.47-36.77,25.69-8.76,53.52-13.12,83.52-13.12,37.38,0,71.25,6.74,101.62,20.18,30.38,13.48,52.94,31.9,67.76,55.25l-84.69,54.02c-8.17-13.62-20.45-24.58-36.8-32.84-16.38-8.29-33.69-12.42-52-12.42-13.62,0-26.1,2.29-37.38,6.83-11.31,4.54-21.12,10.87-29.5,18.98-8.38,8.11-14.79,17.75-19.28,28.94-4.48,11.22-6.71,23.47-6.71,36.77s2.34,25.96,7,37c4.69,11.02,11.19,20.51,19.57,28.45,8.38,7.97,18.4,14.12,30.09,18.51,11.69,4.36,24.73,6.56,39.14,6.56,18.28,0,35.83-3.81,52.56-11.43,12.63-5.74,24.37-13.3,35.21-22.65h-72.01v-68.14h170.56Z"/>
    <path class="cls-3" d="m4225.26,3131.63v183.98h-94.04v-28.8c-29.82,20.83-63.86,31.26-102.21,31.26-26.86,0-52.47-3.98-76.81-11.95-24.31-7.94-45.85-19.63-64.54-35.04-18.69-15.41-33.4-34.07-44.09-55.98-10.72-21.88-16.05-46.96-16.05-75.17,0-24.34,5.45-46.9,16.35-67.67,10.9-20.77,25.98-39.02,45.26-54.75,19.28-15.73,41.78-27.98,67.47-36.77,25.69-8.76,53.52-13.12,83.52-13.12,37.38,0,71.28,6.74,101.63,20.18,30.38,13.48,52.96,31.9,67.76,55.25l-84.69,54.02c-8.17-13.62-20.45-24.58-36.8-32.84-16.35-8.29-33.69-12.42-51.97-12.42-13.65,0-26.1,2.29-37.38,6.83-11.31,4.54-21.15,10.87-29.5,18.98-8.38,8.11-14.82,17.75-19.28,28.94-4.48,11.22-6.74,23.47-6.74,36.77s2.34,25.96,7.03,37c4.66,11.02,11.19,20.51,19.57,28.45,8.35,7.97,18.4,14.12,30.06,18.51,11.69,4.36,24.73,6.56,39.14,6.56,18.31,0,35.83-3.81,52.59-11.43,12.63-5.74,24.34-13.3,35.21-22.65h-72.01v-68.14h170.53Z"/>
    <path class="cls-3" d="m4304.71,3315.62v-345.59h113.9v345.59h-113.9Z"/>
  </g>
</svg>