<svg width="612" height="792" viewBox="0 0 612 792" fill="none" xmlns="http://www.w3.org/2000/svg">
<path d="M298.725 284.524L302.085 284.904L302.425 283.724L303.425 282.354L303.145 279.064L299.895 281.244L298.435 281.274L298.685 284.444L298.725 284.534V284.524Z" stroke="white" stroke-opacity="0.2" stroke-width="0.88" stroke-miterlimit="10"/>
<path d="M366.705 347.046L367.895 352.616L369.865 357.456L375.375 367.276L381.535 374.046L388.775 379.446L389.535 381.496L392.755 384.596L393.045 385.786L397.925 389.036L402.455 390.646L402.635 394.906L405.645 397.036L404.615 398.656L405.415 399.396L402.925 401.116L400.905 403.606L400.185 406.326L398.115 407.786L396.605 411.066L392.425 415.576L390.635 415.256L391.325 414.696L390.385 410.926L389.415 409.986L387.275 408.566L386.355 409.726L385.855 409.536L384.995 407.616L383.905 407.726L383.075 406.616L380.515 408.706L379.255 410.656L377.305 410.786L376.935 411.576L378.035 414.696L379.365 415.476L378.995 416.376L378.245 416.266L378.025 415.376L377.435 416.466L375.685 416.506L375.135 418.826L374.445 417.006L373.425 417.086L372.665 419.196L371.495 419.236L371.245 420.516L369.605 419.656L367.765 420.116L365.575 417.246L363.855 417.416L361.745 416.176L360.845 416.746L359.675 416.396L358.135 413.486L356.975 414.126L356.035 413.086L354.475 412.656L353.545 414.496L349.985 415.686L348.685 414.866L348.045 413.276L346.425 412.896L345.125 411.636L343.605 411.026L342.375 412.216L341.495 409.026L342.615 407.016L341.735 405.776L340.845 405.936L339.105 403.936L338.315 404.256L331.595 400.316L329.815 399.686L329.795 400.776L327.705 400.216L326.465 398.236L326.595 393.916L327.275 394.236L329.105 392.676L329.145 390.576L330.665 390.466L336.425 393.566L337.515 392.886L338.995 393.426L339.935 391.466L341.255 391.216L340.785 390.596L342.395 390.306L340.705 389.236L340.445 387.806L338.315 387.066L336.045 384.836L335.475 381.956L332.195 379.776L334.025 377.726L330.525 374.446L333.315 372.316L333.225 370.226L332.345 368.596L333.245 368.086L333.915 365.666L336.325 366.576L336.865 365.936H338.055L338.565 366.796L339.885 366.116L341.865 366.386L343.055 365.356L343.725 362.346L341.975 361.796L340.965 360.596L341.435 359.116L342.895 359.536L344.545 358.366L345.045 358.766L345.575 356.686L347.655 356.346L347.915 354.156L349.095 352.846L349.305 351.586L351.135 352.576L353.215 351.606L353.805 352.436L354.995 352.286L356.765 351.456L357.165 349.516L357.765 349.186L360.205 349.026L362.055 347.786L366.435 346.846L366.675 347.056L366.705 347.046Z" stroke="white" stroke-opacity="0.2" stroke-width="0.88" stroke-miterlimit="10"/>
<path d="M439.735 457.796L439.445 456.716L440.625 455.636L442.335 455.306L446.415 455.986L448.615 455.196L449.885 456.116L451.365 455.316L451.225 454.486L452.695 454.106L452.535 453.436L453.255 453.686L454.505 452.936L456.525 454.386L458.055 454.646L458.265 455.546L459.375 455.806L459.915 457.866L460.455 457.496L462.075 458.816L461.515 459.726L461.775 461.086L460.205 462.886L458.875 462.646L459.415 463.636L464.325 465.726L465.725 467.056L467.605 465.336L469.365 465.906L471.945 471.576L477.705 476.886L478.385 478.416L479.725 478.786L482.785 475.236L484.575 477.406L484.525 475.746L485.375 475.516L486.125 476.686L486.225 475.156L487.705 475.796L488.595 475.236L488.745 476.106L489.775 476.716L490.245 476.066L492.805 478.016L491.905 478.466L492.975 479.706L492.185 482.886L492.995 484.686L492.445 485.086L492.065 487.626L492.905 488.516L492.515 489.226L493.535 489.996L492.695 491.826L493.455 492.656L494.945 492.276L496.495 493.216L496.815 494.636L498.345 495.926L499.025 497.556L495.565 502.506L491.345 511.606L489.335 513.076L486.945 512.246L484.205 513.096L481.505 512.196L479.825 512.516L479.245 511.546L478.695 512.836L478.885 515.326L477.985 517.276L478.215 519.036L475.535 523.816L476.505 524.816L476.115 525.976L474.235 523.876L472.475 523.716L469.905 524.296L469.885 525.836L467.445 524.716L466.535 525.666L462.315 525.896L460.955 524.366L461.275 523.826L460.525 522.416L461.615 520.456L460.595 520.176L459.285 520.926L458.675 520.086L457.055 519.826L455.795 520.906L455.255 520.146L454.435 520.576L453.645 519.746L452.165 519.906L450.105 522.126L449.275 524.406L447.705 521.286L445.865 519.596L445.745 518.296L444.265 517.436L445.745 516.546L444.625 515.336L445.685 515.036L447.055 513.176L446.775 510.616L448.195 509.166L448.075 508.286L451.125 506.986L450.665 505.906L451.485 505.176L451.445 503.926L450.905 502.916L448.335 502.166L448.215 501.006L446.775 499.676L446.735 497.426L444.895 496.756L443.485 494.876L441.675 493.976L441.255 492.456L439.345 490.956L439.975 490.006L438.785 487.186L439.395 486.466L435.575 484.156L436.215 482.386L437.665 481.496L437.715 480.786L432.505 477.406L432.655 473.146L431.935 473.086L432.125 472.046L430.315 470.926L432.155 470.796L432.265 468.916L431.365 468.456L431.745 467.876L435.955 468.826L436.515 468.516L436.315 467.496L438.915 466.366L440.895 461.216L439.695 457.726L439.735 457.796Z" stroke="white" stroke-opacity="0.2" stroke-width="0.88" stroke-miterlimit="10"/>
<path d="M449.285 524.434L450.115 522.154L452.175 519.944L453.655 519.784L454.445 520.604L455.265 520.174L455.805 520.934L457.065 519.854L458.695 520.114L459.305 520.954L460.615 520.204L461.635 520.474L460.545 522.434L461.295 523.844L460.975 524.384L462.335 525.914L466.555 525.684L467.465 524.734L469.905 525.844L469.925 524.304L472.495 523.734L474.255 523.894L476.135 525.984L476.525 524.824L475.555 523.824L478.235 519.044L477.995 517.274L478.895 515.334L478.715 512.844L479.265 511.564L479.845 512.534L481.525 512.214L484.235 513.114L486.975 512.264L489.365 513.094L487.685 515.234L487.385 517.544L488.575 522.624L484.535 527.744L482.335 531.814L482.375 534.374L484.145 536.414L483.665 539.454L488.125 542.094L495.185 542.204L499.325 546.884L503.445 549.404L506.495 550.184L507.175 551.994L509.055 553.804L512.495 554.994L510.425 560.154L510.205 563.394L512.115 566.184L510.395 571.934L511.655 573.584L511.385 574.414L512.015 575.414L514.705 576.684L512.805 578.404L513.025 580.864L509.675 584.374L509.435 583.404L508.195 582.954L506.345 583.624L504.465 581.714L500.345 582.364L495.325 584.234L487.645 588.994L484.435 594.744L485.445 596.534L486.595 608.534L486.195 611.014L481.235 616.174L474.875 618.864L467.845 627.754L466.955 633.704L464.725 637.944L463.245 639.784L460.315 640.254L456.775 639.424L449.585 640.104L445.865 637.984L443.955 634.414L444.895 633.084L443.775 630.104L444.885 627.554L443.905 624.604L443.945 622.214L447.545 620.734L449.205 620.684L451.475 619.404L452.575 617.494L452.975 614.704L453.985 613.794L454.685 611.384L455.975 610.204L456.615 608.504L457.275 604.224L452.605 600.044L453.025 598.444L454.615 596.934L458.325 595.704L459.855 594.094L462.015 593.834L465.015 594.734L466.535 594.294L468.665 592.624L470.405 586.934L470.155 582.434L467.445 581.114L464.795 576.214L463.375 569.834L462.695 560.644L460.285 552.674L457.075 547.664L454.755 546.004L452.895 539.554L452.095 538.894L450.865 531.174L450.025 529.694L451.035 527.994L449.325 524.394L449.285 524.434Z" stroke="white" stroke-opacity="0.2" stroke-width="0.88" stroke-miterlimit="10"/>
<path d="M369.305 433.454L370.635 434.134L370.385 435.464L372.195 437.614L374.085 437.194L375.225 437.954L374.985 435.824L373.785 434.354L375.715 430.814L377.725 432.494L378.065 431.284L381.095 431.334L381.275 432.084H382.825L383.065 432.984L384.845 433.944L391.875 435.994L392.205 437.394L393.255 438.194L396.185 437.734L397.255 439.284L399.175 437.574L400.095 437.524L400.055 436.694L401.785 436.484L402.615 437.134L404.265 436.624L405.775 434.084L409.295 435.574L410.675 434.174L413.005 433.984L415.625 432.144L417.215 434.634L419.725 435.334L419.895 436.034L419.175 436.714L419.645 437.764L418.715 437.924L417.975 438.954L418.515 441.254L421.125 442.184L421.305 444.094L424.305 443.974L425.215 445.274L426.635 444.994L427.745 446.254L426.335 447.154L427.085 449.244L425.315 450.294L424.605 452.044L425.985 452.724L426.625 454.384L428.395 455.644L429.365 454.854L431.855 455.904L433.345 454.774L435.185 456.354L436.565 456.234L439.725 457.814L440.925 461.304L438.945 466.454L436.345 467.584L436.545 468.604L435.985 468.914L431.775 467.954L431.385 468.544L432.285 468.994L432.175 470.884L430.335 471.014L432.145 472.134L431.955 473.164L432.685 473.224L432.535 477.484L437.745 480.864L437.695 481.574L436.235 482.454L435.595 484.224L439.415 486.534L438.805 487.254L439.995 490.074L439.365 491.024L441.265 492.524L441.695 494.044L443.505 494.944L444.915 496.824L446.755 497.494L446.795 499.744L448.245 501.074L448.365 502.234L450.935 502.984L451.475 503.994L451.515 505.254L450.695 505.984L451.155 507.064L448.105 508.354L448.225 509.234L446.815 510.684L447.095 513.244L445.725 515.104L444.675 515.404L445.795 516.604L444.305 517.494L443.545 515.774L441.105 515.444L437.965 516.274L434.245 520.554L431.265 520.054L429.485 518.314L427.545 518.794L427.375 518.244L428.135 517.674L427.525 515.714L424.615 512.924L423.315 512.734L421.115 510.074L417.005 510.124L414.675 507.224L411.445 506.224L410.905 505.294L412.645 503.974L412.735 500.454L415.025 499.134V496.554L409.725 485.524L405.045 480.604L402.645 480.974L401.455 482.844L398.525 481.994L396.145 484.104L394.085 484.464L391.955 483.294L384.875 486.694L385.555 483.094L388.335 482.544L388.715 481.254L391.855 479.094L390.905 476.314L388.185 475.454L385.075 472.034L382.655 470.414L380.325 471.384L378.705 473.474L377.415 473.284L378.095 472.954L377.475 472.054L374.535 471.214L373.565 471.894L374.315 474.254L372.335 473.584V469.614L371.345 466.164L369.015 462.454L368.965 462.324L366.845 460.044L365.615 455.804L362.485 450.694L359.685 447.874L360.165 446.714L362.795 446.204L363.235 445.524L362.665 445.314L362.755 444.414L365.485 443.444L364.585 439.514L365.305 438.194L364.145 436.244L366.035 435.924L368.715 433.494L369.315 433.514L369.305 433.454Z" stroke="white" stroke-opacity="0.2" stroke-width="0.88" stroke-miterlimit="10"/>
<path d="M314.045 280.434L313.015 283.144L313.215 286.774L311.005 287.644L310.535 289.484L307.975 289.164L308.145 288.254L307.445 287.984L306.835 285.784L304.445 286.774V284.894L302.455 283.734L303.445 282.364L303.165 279.074L299.915 281.254L298.455 281.294L298.705 284.454L299.765 286.404H298.345L298.045 285.674L296.295 286.364L295.405 289.414L293.125 291.254L292.945 293.164L292.905 293.134L291.465 293.914L289.685 293.594L288.955 295.324L287.595 293.294L286.335 293.994L285.095 293.854L283.585 294.644L282.615 293.524L281.805 293.744L280.525 292.954L279.595 293.324L278.165 292.404L277.985 291.554L276.795 291.394L276.335 290.264L272.245 290.084L270.485 287.964L267.345 286.204L267.585 283.514L265.985 282.444L266.275 281.014L264.365 279.184L264.585 278.174L265.175 278.254L264.995 277.294L266.475 276.734L266.855 274.984L268.635 273.064L268.935 270.704L264.135 271.674L261.805 271.354L263.075 269.514L262.905 268.604L260.625 268.134L259.725 269.014L258.675 268.784L257.155 267.054L255.935 266.724L255.635 264.844L254.465 263.794L252.305 265.894L250.115 266.124L249.935 267.064L247.935 268.884L244.435 269.004L244.335 269.834L246.905 271.324L247.125 272.274L244.895 272.414L242.185 271.634L239.255 272.904L236.835 272.624L235.475 271.614L236.015 270.704L235.665 269.904L231.395 274.694L230.815 274.434L231.095 273.604L230.495 272.804L228.495 272.364L224.135 268.824L219.245 268.714L218.365 269.794L218.425 270.984L216.955 271.354L213.955 268.674L213.745 267.314L212.215 265.904L212.255 264.694L211.185 264.104L209.715 264.354L207.125 261.684L205.715 261.654L203.795 260.574L201.705 261.624L196.765 256.394L194.625 256.844L190.865 254.264L189.875 253.154L190.345 250.854L189.425 250.674L188.985 249.584L186.855 248.824L182.155 249.344L179.165 254.064L176.005 255.904L174.755 252.984L172.385 251.234L171.465 251.804L170.225 251.044L169.915 251.884L167.475 252.124L166.645 253.114L166.415 252.084L164.965 252.424L166.315 248.464L167.475 248.284L167.895 245.284L167.135 243.444L164.295 242.474L163.605 240.954L161.465 242.524L158.695 240.284L158.305 241.204L156.465 240.894L156.765 240.154L156.245 239.604L154.265 239.994L154.235 235.534L154.665 235.704L156.205 235.604L155.925 233.834L157.075 236.034L159.915 235.284L159.295 234.064L160.075 233.154L159.945 232.084L158.415 231.264L158.155 230.294L161.535 226.884L160.595 224.034L159.745 223.314L159.105 223.664L157.565 222.254L158.665 220.814L158.135 219.914L159.595 219.544L160.795 215.984L162.235 214.444L162.125 212.534L163.925 210.914L163.825 210.324L164.905 210.484L165.185 209.774L167.675 209.144L169.055 210.774L170.045 209.874L169.495 207.474L170.135 207.364L171.545 209.244L172.665 208.774L173.235 207.094L174.045 208.194L173.915 210.394L177.585 211.964L179.005 210.714L179.445 209.824L178.785 208.864L179.545 208.624L180.275 209.974L181.895 210.804L182.215 212.434L183.035 209.614L183.915 209.644L184.805 210.944L185.575 210.604L185.755 209.584L184.765 208.184L186.345 206.904L186.985 207.444L186.655 209.364L189.185 207.424L189.965 207.504L191.615 209.654L191.225 210.964L192.555 212.044L192.615 213.114L193.925 212.804L194.625 214.334L197.545 212.964L198.015 213.784L199.965 213.734L202.595 215.814L204.005 215.854L206.495 217.844L208.645 216.664L209.935 219.224L213.945 221.184L217.405 221.034L218.675 220.294L221.185 216.674L221.585 218.094L223.165 216.274L224.015 219.014L227.885 219.644L228.545 220.334L229.315 220.194L229.385 220.854L230.565 220.704L230.385 221.214L231.665 220.424L232.855 220.614L233.055 219.604L235.095 218.554L237.835 218.784L238.655 218.094L240.985 218.654L242.055 220.014L242.535 219.444L245.955 219.174L246.275 218.594L247.575 219.514L249.045 218.114L254.515 218.924L254.655 220.234L259.665 219.914L261.505 221.154L261.885 222.574L262.505 222.794L263.595 222.684L265.365 221.014L268.165 220.234L268.815 218.284L271.375 217.094L276.885 217.164L278.825 216.484L284.705 217.424L286.715 220.124L288.015 219.274L288.725 220.194L290.615 220.344L291.895 219.214H292.845L293.575 220.154L293.025 221.244L293.315 223.784L293.875 224.614L295.625 225.064L296.155 226.974L295.585 227.124L294.535 225.504L293.485 225.184L291.965 227.184L293.075 226.744L291.615 230.584L291.095 234.954L291.515 237.864L293.235 241.224L293.135 248.984L294.685 253.164L294.865 256.144L296.665 262.424L298.215 265.524L304.105 272.394L306.315 273.874L311.555 279.524L314.005 280.424L314.045 280.434ZM288.205 290.364L287.965 291.354L289.165 292.754L291.075 291.774L290.815 290.804L290.635 290.394L288.205 290.364Z" stroke="white" stroke-opacity="0.2" stroke-width="0.88" stroke-miterlimit="10"/>
<path d="M316.095 110.155L317.785 110.715V111.975L318.395 112.295L322.005 112.035L327.405 113.085L329.105 112.615L332.765 113.515L335.975 115.935L337.465 115.315L339.705 115.935L340.745 114.815L341.915 114.945L342.015 114.145L343.635 114.605L343.545 115.305L344.385 115.575L347.805 114.965L348.485 116.225L350.425 115.935L350.955 116.835L353.065 116.585L357.435 117.965L356.115 123.325L354.445 122.755L351.885 123.405L350.685 125.905L346.395 128.325L345.015 128.385L345.035 130.725L342.085 132.555L344.255 136.565L343.745 138.065L345.355 137.905L345.295 137.095L346.885 137.145L347.755 137.765L349.015 137.555L350.415 138.475L350.975 139.775L353.785 139.335L355.035 140.045L354.135 142.875L350.995 145.905L347.685 148.005L347.945 149.995L346.565 151.405L349.245 153.905L350.685 153.705L351.855 152.395L354.125 152.695L353.875 155.755L351.115 161.075L352.025 163.935L353.195 164.715L355.285 164.385L358.785 167.345L360.995 167.935L364.155 173.455L366.605 175.235L362.985 178.465L361.085 178.585L358.915 177.445L357.595 177.765L357.515 176.945L358.195 176.575L360.575 177.325L361.635 176.485L360.375 176.525L359.975 175.155L359.085 175.345L358.565 174.765L359.645 173.935L359.015 172.125L353.615 166.335L351.415 165.695L350.425 166.015L349.935 165.315L348.735 166.615L348.565 168.075L350.115 169.325L347.165 170.745L346.465 170.505L344.605 172.315L342.475 172.515L337.965 170.095L336.345 169.835H336.075L335.995 169.775L332.285 170.755L329.755 174.635L328.815 174.105L328.925 173.565L328.065 173.675L328.215 172.515L327.325 171.815L327.645 171.115L326.955 170.935L326.455 168.595L325.605 169.215L325.915 168.185L325.345 167.045L325.775 166.815L323.995 165.125L324.955 164.565L324.235 164.265L324.395 163.545L324.055 163.225L324.095 162.955L323.585 161.565L323.065 161.775L323.465 163.025L322.105 163.465L321.675 162.505L320.345 163.335L319.245 162.335L319.595 161.365L319.035 161.305L317.125 162.265L316.645 163.175L316.095 162.535L316.475 161.655L315.485 160.915L313.745 162.755L313.155 162.165L309.745 165.315L309.705 163.895L308.725 163.435L308.615 162.655L307.525 162.075L306.925 163.485L305.165 162.565L305.355 161.515L304.135 160.405L303.025 156.425H301.725L300.815 155.095L299.555 155.055L299.535 152.005L298.915 149.725L298.105 149.025L299.655 146.555L302.205 144.835L302.605 141.695L300.475 139.985L300.215 138.115L298.605 138.205L298.375 136.815L296.545 136.835L294.685 134.335L296.265 132.685L296.225 130.935L297.135 130.195L298.815 130.435L299.105 128.665L300.715 127.845L300.555 127.315L301.085 127.555L300.805 126.345L302.565 124.795L302.815 123.255L304.115 121.465L304.475 121.845L305.855 120.745L307.475 121.435L308.385 120.745L309.985 121.425L309.645 119.895L308.565 119.195L308.675 118.365L311.715 116.455L313.955 116.405L313.185 115.385L313.795 113.395L312.945 111.935L313.115 110.355L314.565 109.555L316.105 110.125L316.095 110.155Z" stroke="white" stroke-opacity="0.2" stroke-width="0.88" stroke-miterlimit="10"/>
<path d="M369.085 431.574L369.975 432.324L369.305 433.464L368.645 433.434L365.975 435.864L364.085 436.184L365.245 438.134L364.535 439.454L365.435 443.384L362.705 444.364L362.615 445.264L363.185 445.474L362.745 446.154L360.115 446.664L359.635 447.824L357.165 446.054L356.095 446.584L353.625 445.574L351.035 447.034L351.135 448.314L351.925 448.844L350.135 448.904L342.285 444.324L338.475 443.414L337.035 444.294L334.995 444.184L332.435 445.004L329.525 447.774L327.405 447.604L324.835 441.694L321.625 438.274L318.465 436.524L315.505 436.224L314.795 436.774L310.565 433.934L309.075 434.184L308.955 434.804L308.195 434.484L305.275 429.334L299.055 421.914L295.825 419.174L290.375 416.684L289.555 411.504L286.805 406.454L282.565 403.964L281.425 402.264L279.175 401.404L278.675 400.344L276.625 399.044L272.875 399.594L271.405 396.174L268.735 392.654L268.575 391.004L266.715 387.254L264.735 384.474L259.955 380.584L255.445 378.434L257.075 374.794L263.045 374.724L262.965 371.714L260.515 370.034L261.715 368.334L261.315 366.784L261.855 366.494L262.855 367.414L263.445 366.634L264.155 366.834L265.685 366.064L265.865 365.114L267.185 364.144L268.315 364.364L269.115 362.484L270.315 362.654L271.545 361.844L271.475 360.894L270.555 360.474L270.195 358.174H271.275L272.185 356.114L268.865 353.514L269.885 351.374L270.945 351.784L271.555 352.944L272.005 351.174L273.435 350.234L275.615 350.354L277.035 353.774L279.475 355.354L278.585 357.094L276.965 358.004L278.095 359.854L281.735 362.104L284.965 360.954L285.855 361.894L285.965 361.234L286.555 361.424L287.765 360.374L289.195 360.974L290.665 362.784L291.145 366.714L292.615 367.394L292.435 369.114L293.345 369.864L292.685 370.454L294.015 371.154L293.405 371.554L295.045 371.374L296.125 372.484L297.885 371.064L299.175 371.204L298.955 372.834L299.605 373.434L299.005 373.634V375.444L301.005 376.144L300.155 377.394L303.355 376.934L303.315 378.414L304.075 379.294L307.875 376.344L308.065 372.934L309.115 372.864L309.895 374.494L310.955 374.454L313.585 372.724L312.385 370.934L315.075 370.164L315.225 368.994L317.025 369.084L318.645 367.654L320.485 367.064L319.945 364.824L320.455 363.794L322.225 364.664L322.925 363.814L325.775 363.854L326.395 362.514L328.205 363.464L330.665 361.954L330.705 361.274L332.125 361.834L333.295 360.714L333.955 356.804L336.835 357.494L337.305 356.464L338.265 356.374L341.495 359.154L341.025 360.634L342.035 361.824L343.785 362.374L343.115 365.394L341.925 366.424L339.945 366.144L338.625 366.824L338.115 365.974H336.925L336.385 366.604L333.975 365.704L333.305 368.124L332.405 368.624L333.285 370.254L333.375 372.344L330.585 374.474L334.085 377.754L332.245 379.804L335.525 381.974L336.095 384.864L338.365 387.094L340.495 387.824L340.755 389.254L342.455 390.324L340.845 390.614L341.305 391.224L339.995 391.474L339.055 393.434L337.575 392.894L336.485 393.574L330.725 390.474L329.205 390.584L329.165 392.694L327.335 394.254L326.655 393.934L326.525 398.254L327.755 400.234L329.855 400.794L329.875 399.704L331.655 400.334L338.375 404.274L339.155 403.954L340.895 405.954L341.795 405.784L342.675 407.024L341.555 409.034L342.435 412.224L343.665 411.034L345.185 411.644L346.485 412.904L348.105 413.284L348.755 414.874L350.055 415.694L353.615 414.504L354.555 412.664L356.105 413.094L357.045 414.134L358.215 413.494L359.755 416.404L360.925 416.754L361.825 416.174L363.935 417.424L365.655 417.254L367.855 420.124L369.605 421.634L370.835 424.784L370.925 425.984L370.325 426.544L371.525 427.874L371.335 428.704L370.585 428.864L371.655 429.794L369.085 431.564V431.574Z" stroke="white" stroke-opacity="0.2" stroke-width="0.88" stroke-miterlimit="10"/>
<path d="M183.635 275.535L183.285 276.405L182.745 275.535H183.645H183.635ZM87.1849 274.505L87.8749 274.745L89.2349 273.275L88.0849 273.295L87.285 272.035L87.6949 270.685L89.395 269.745L97.2949 272.275L98.7349 271.515L100.455 272.125L100.845 271.485L100.355 270.725L99.2049 270.185L100.825 268.855L102.165 269.755L103.415 269.325L104.455 267.975L104.415 266.275L103.135 265.155L103.775 263.665L103.015 262.695L104.115 261.615L102.995 260.465V259.585L103.375 259.115L104.655 259.685L104.915 257.775L106.045 257.915L106.905 256.505L106.695 254.755L109.495 253.205L110.155 251.515L108.955 248.635L110.165 248.235L110.125 246.565L111.485 245.475L112.345 246.815L113.965 246.985L116.665 249.275L117.815 248.655L118.305 246.725L119.015 246.395L120.305 247.315L121.305 245.815L121.615 246.575L124.425 246.465L125.305 247.125L127.715 244.465L127.025 243.665L128.105 241.975L131.235 242.155L132.655 242.365L134.225 244.945L133.965 245.735L134.725 245.695L135.055 247.625L136.175 247.225L135.855 245.925L137.385 244.645L137.365 243.355L139.365 243.105L140.135 244.145L141.395 243.465L141.135 240.195L139.875 238.825L141.245 237.715L141.805 236.255L143.215 236.045L143.845 236.945L145.845 236.725L147.255 239.735L148.515 239.485L149.795 240.235L149.755 241.535L151.185 242.595L154.275 241.315L154.225 240.035L156.205 239.645L156.735 240.195L156.435 240.935L158.275 241.245L158.665 240.325L161.435 242.565L163.575 240.995L164.265 242.515L167.105 243.485L167.865 245.325L167.445 248.325L166.285 248.505L164.935 252.465L166.385 252.125L166.615 253.155L167.445 252.165L169.885 251.925L170.195 251.085L171.445 251.845L172.365 251.275L174.735 253.025L175.985 255.945L177.145 255.775L178.035 258.045L181.575 260.795L183.845 261.725L183.925 263.985L184.635 264.595L184.255 266.995L186.085 265.455L187.375 266.355L186.715 266.405L185.625 268.145L189.075 268.035L189.255 270.105L190.085 271.325L189.655 272.405L191.215 271.085L193.295 272.375L193.055 273.585L191.105 275.825L189.715 275.585L188.665 276.345L186.075 274.415L186.115 273.605H184.925L183.175 271.835L182.045 272.525L183.185 273.945L182.975 274.465L183.635 274.355L182.715 275.585L178.535 272.855L176.865 270.695L174.725 269.575L173.745 270.295L172.555 268.045L170.765 267.255L169.965 265.775L168.105 265.075L167.285 263.825L165.215 263.755L163.985 262.485L163.405 262.895L161.985 260.445L155.815 256.965L154.855 257.875L154.965 259.995L151.765 258.515L152.225 256.955L151.615 256.115L142.245 253.745L141.675 252.815L141.155 253.205L141.515 253.795L137.525 252.715L138.555 252.535L137.745 252.215L135.655 252.115L135.895 252.575L134.085 252.155L132.265 252.855L130.925 254.145L129.315 254.455L128.025 255.805L122.805 258.455L122.125 259.345L122.735 259.225L120.105 261.635L120.775 262.525L119.085 264.765L119.415 266.555L112.385 270.065L110.635 273.105L110.395 276.035L107.635 279.135L107.445 280.375L108.095 281.565L104.325 284.105L103.525 285.575L101.495 286.015L97.8049 288.425L93.9049 289.215L92.645 290.275L91.2949 289.875L88.3749 291.595L86.785 291.335L85.4449 292.735L81.325 291.795L80.2349 292.685L79.3349 292.495L77.4449 287.955L77.5249 286.605L78.1849 285.775L80.3349 285.115L80.6649 282.335L84.505 280.325L85.1949 278.785L84.9749 276.925L86.8849 276.105L87.1349 274.585L87.1849 274.505Z" stroke="white" stroke-opacity="0.2" stroke-width="0.88" stroke-miterlimit="10"/>
<path d="M201.455 111.365L201.915 111.875L201.115 113.135L201.345 114.115L203.165 114.445L203.585 115.805L205.555 116.325L206.135 115.435L208.095 116.205L209.065 115.785L210.745 117.085L211.755 119.455L215.065 119.715L217.385 121.265L218.285 122.455L218.085 124.375L218.825 125.595L217.515 126.965L215.785 127.065L213.515 129.305L215.835 130.425L216.365 132.195L215.585 133.315L216.295 133.725L216.755 135.605L214.755 139.255L215.695 140.655L214.865 144.545L211.945 148.115L212.265 149.785L211.215 150.615L210.715 152.225L210.755 153.105L212.285 153.385L212.145 155.165L213.285 156.915L212.485 158.755L212.945 162.535L214.925 163.365L214.305 164.565L214.675 165.325L215.835 165.435L217.715 164.265L219.455 164.205L219.865 162.315L223.385 161.605L224.505 162.465L224.845 161.705L228.335 162.385L218.595 176.875L219.585 187.195L219.235 188.935L219.975 189.095L220.585 188.385L222.745 189.375L221.905 191.635L222.745 192.295L221.605 193.155L222.485 194.465L221.885 196.145L223.195 196.485L223.645 197.355L225.765 195.595L227.485 197.285L228.465 199.345L230.785 199.865L230.885 200.465L232.495 200.885L232.405 202.025L234.925 203.165L235.625 204.235L235.295 205.735L236.705 205.455L237.465 205.935L236.625 207.585L238.665 209.295L239.715 209.485L239.925 208.365L241.115 209.005L241.935 207.525L244.565 208.505L243.445 209.405L243.805 210.295L243.285 211.715L246.035 212.735L247.295 211.985V214.145L254.315 217.905L254.515 218.805L249.045 217.995L247.575 219.395L246.275 218.475L245.955 219.055L242.535 219.325L242.055 219.895L240.985 218.545L238.655 217.985L237.835 218.675L235.095 218.445L233.055 219.495L232.855 220.515L231.665 220.325L230.385 221.115L230.565 220.605L229.385 220.755L229.315 220.095L228.545 220.235L227.885 219.545L224.015 218.925L223.165 216.185L221.585 218.005L221.185 216.585L218.685 220.205L217.415 220.945L213.955 221.095L209.945 219.135L208.655 216.575L206.505 217.755L204.015 215.765L202.605 215.725L199.975 213.645L198.025 213.705L197.555 212.895L194.635 214.265L193.945 212.745L192.635 213.055L192.575 211.985L191.245 210.905L191.635 209.595L189.985 207.445L189.205 207.365L186.675 209.315L187.005 207.395L186.365 206.855L184.785 208.135L185.775 209.535L185.605 210.555L184.835 210.895L183.945 209.595L183.065 209.565L182.245 212.385L181.925 210.755L180.305 209.925L179.585 208.575L178.825 208.815L179.485 209.775L179.045 210.665L177.625 211.915L173.955 210.345L174.085 208.145L173.275 207.045L172.705 208.725L171.585 209.195L170.175 207.315L169.535 207.425L170.085 209.825L169.095 210.725L167.715 209.095L165.225 209.725L164.945 210.435L163.865 210.275L163.965 210.865L162.175 212.485L162.285 214.395L160.855 215.935L159.655 219.495L158.195 219.865L158.725 220.765L157.625 222.205L159.165 223.615L159.805 223.265L160.655 223.985L161.595 226.835L158.215 230.245L158.475 231.215L160.005 232.035L160.135 233.105L159.355 234.015L159.975 235.245L157.135 236.005L155.985 233.805L156.265 235.575L154.725 235.675L154.405 233.175L154.955 231.415L152.965 229.935L152.555 227.365L150.165 228.025L149.765 227.345L148.485 227.235L148.595 226.405L147.575 225.375L148.405 224.485L147.765 222.745L146.865 222.855L145.385 221.545L144.025 219.305L144.235 217.785L143.595 216.655L143.185 216.265L142.025 216.805L140.895 215.265L140.645 212.455L138.085 212.655L136.665 214.065L135.225 214.225L135.005 215.125L133.885 214.975L133.735 214.095L132.755 214.235L132.415 213.215L132.015 214.765L129.095 213.075L128.845 209.985L127.595 208.845L127.905 207.705L126.925 207.435L126.405 206.125L125.145 205.745L124.665 204.885L126.235 202.625L124.325 203.465L123.885 203.125L124.935 202.745L123.835 201.715L124.665 200.965L124.165 200.605L125.275 200.465L123.865 199.995L123.845 199.565L124.695 199.675L124.425 198.125L122.655 197.215L123.295 195.905L124.485 195.505L123.955 193.935L125.275 192.725L126.315 193.605L128.755 193.505V194.305L129.745 194.955L130.175 197.195L131.465 197.095L132.435 196.575L132.925 194.735L134.575 193.685L132.665 191.645L133.995 191.895L135.025 191.195L136.405 191.585L138.275 190.635L137.455 188.185L136.675 188.235L135.665 184.815L132.585 183.225L131.455 178.905L131.845 177.405L130.155 175.965L129.875 174.855L131.205 175.125L130.495 173.505L130.815 172.625L129.035 172.275L129.515 169.935L126.835 169.135L125.065 165.785L125.115 164.475L126.945 162.415L125.825 158.065L132.895 150.375L132.005 146.375L132.555 144.965L133.615 143.795L134.365 145.025L135.475 145.595L136.545 145.135L138.615 146.825L138.645 147.795L137.725 148.345L135.545 152.245L137.605 152.275L139.305 154.065L140.555 154.355L140.595 155.835L142.765 160.125L141.225 162.435L143.265 161.675L145.105 162.355L144.805 163.235L146.855 163.305L147.505 160.095L149.295 158.185L148.645 158.095L147.925 156.685L146.115 156.215L145.885 154.235L144.815 153.625L146.475 152.105L145.485 149.235L145.955 148.325L148.615 147.365L149.145 145.935L148.455 143.805L150.585 142.755L152.465 140.615L153.395 140.555L155.175 136.435L156.455 136.305L156.605 134.205L158.655 130.365L158.555 128.565L157.605 127.505L157.845 124.665L156.385 122.835L157.565 121.835L157.725 119.295L161.585 118.425L162.125 119.995L163.775 121.145L164.885 119.035L166.155 118.415L165.945 119.695L165.335 119.925L166.195 120.445L166.085 127.165L167.745 127.715L168.625 130.355L169.955 131.955L170.355 131.625L173.755 132.995L175.635 131.935L177.215 132.605L178.455 128.845L180.305 129.815L186.115 126.845L186.955 127.815L188.175 126.935L190.155 128.735L189.475 130.625L190.385 131.215L190.275 133.135L192.835 134.445L192.365 136.695L193.435 137.445L194.405 136.765L195.835 137.015L198.255 134.945L197.295 132.645L195.045 130.015L195.155 128.695L196.105 128.085L196.565 126.535L197.615 126.325L197.795 124.995L197.005 124.815L196.685 123.725L193.945 124.205L192.105 122.685L192.715 121.355L192.215 120.435L192.755 117.795L192.305 116.485L194.835 113.755L194.925 111.845L196.165 112.175L198.825 110.815L199.975 111.375L201.055 110.285L201.465 111.305L201.455 111.365Z" stroke="white" stroke-opacity="0.2" stroke-width="0.88" stroke-miterlimit="10"/>
<path d="M353.485 306.536L351.055 305.126L350.015 303.086L348.185 301.566L347.445 302.896L345.635 302.676L338.995 298.976L321.005 283.196L316.185 280.646L314.055 280.436L313.025 283.146L313.225 286.776L311.015 287.646L310.545 289.486L307.985 289.166L308.155 288.256L307.455 287.986L306.845 285.786L304.455 286.776V284.896L302.465 283.736L302.115 284.926L298.765 284.546L298.725 284.456L299.785 286.406H298.365L298.065 285.676L296.315 286.366L295.425 289.416L293.145 291.256L292.965 293.166L293.075 293.256L294.965 294.016L296.975 296.716L295.135 296.736L295.395 298.646L294.585 298.596L294.045 295.326L293.655 298.066L292.575 298.646L291.295 298.396L291.475 299.106L290.645 300.026L288.615 300.756L289.885 302.716L290.505 303.746L293.215 303.706L293.525 304.196L295.355 302.716L297.005 302.606L296.555 303.286L296.975 304.546L294.415 306.916L295.605 308.166L296.865 307.526L297.985 309.046L299.235 307.206L300.105 307.316L300.835 308.566L301.645 308.606L301.895 307.846L302.695 308.216L308.285 314.616L310.155 313.486L312.115 314.206L313.275 311.846L315.105 312.336L314.785 314.106L315.575 314.846L313.995 316.326L314.035 317.066L316.025 319.666L316.355 322.226L315.815 322.836L317.465 324.016L318.055 327.016L319.275 327.626L319.155 330.176L317.735 331.536L318.325 332.886L320.145 333.256L320.645 334.756L320.435 337.186L321.095 339.036L320.335 339.616L321.165 341.326L320.675 342.636L323.035 344.046L323.215 344.806L324.185 344.916L324.295 348.466L325.355 347.276L325.375 345.776L326.515 346.456L327.745 345.236L330.385 347.256L332.585 350.716L334.925 350.176L336.025 348.576L337.265 351.756L337.045 353.356L336.235 355.026L335.905 354.346L334.215 355.026L333.995 356.786L336.875 357.476L337.345 356.446L338.305 356.356L341.535 359.136L343.005 359.566L344.655 358.396L345.145 358.796L345.675 356.706L347.755 356.366L348.015 354.176L349.185 352.876L349.405 351.606L351.235 352.606L353.305 351.636L353.895 352.466L355.085 352.316L356.855 351.486L357.255 349.546L357.855 349.216L360.295 349.046L362.155 347.806L366.535 346.866L364.605 340.986L363.255 333.846L353.365 309.336L353.515 306.486L353.485 306.536ZM299.755 303.686L299.105 303.456L298.935 303.406L299.215 302.796L299.715 303.086L299.805 303.556L299.755 303.696V303.686Z" stroke="white" stroke-opacity="0.2" stroke-width="0.88" stroke-miterlimit="10"/>
<path d="M406.045 397.365L410.825 399.905L415.205 400.725L418.695 404.535L421.475 405.615L421.655 408.485L419.785 411.185L420.505 413.755L419.665 415.155L420.545 416.225L419.885 416.685L420.765 417.995L422.395 418.745L420.595 419.645L419.995 420.965L419.315 420.285L419.285 421.005L417.445 421.805L416.285 423.935L413.435 422.615L412.335 423.945L413.135 424.645L412.515 429.545L413.885 430.135L415.635 432.155L413.015 433.995L410.685 434.175L409.295 435.585L405.775 434.085L404.265 436.635L402.615 437.145L401.785 436.495L400.055 436.695L400.095 437.525L399.175 437.585L397.255 439.295L396.185 437.745L393.255 438.205L392.205 437.405L391.875 436.005L384.845 433.955L383.065 432.995L382.835 432.105H381.275L381.095 431.355L378.065 431.295L377.725 432.505L375.715 430.825L373.785 434.365L374.995 435.835L375.235 437.965L374.095 437.205L372.205 437.625L370.395 435.475L370.645 434.145L369.315 433.465L369.985 432.335L369.095 431.585L371.605 429.775L370.535 428.845L371.285 428.685L371.465 427.855L370.265 426.525L370.865 425.975L370.775 424.775L369.545 421.625L367.795 420.115L369.635 419.655L371.275 420.515L371.525 419.235L372.695 419.195L373.455 417.085L374.475 417.005L375.165 418.825L375.715 416.505L377.465 416.465L378.055 415.375L378.275 416.265L379.025 416.375L379.395 415.475L378.065 414.695L376.965 411.575L377.335 410.785L379.285 410.655L380.545 408.705L383.105 406.615L383.935 407.725L385.025 407.615L385.885 409.535L386.385 409.725L387.305 408.565L389.445 409.985L390.415 410.925L391.355 414.695L390.665 415.255L392.455 415.575L396.635 411.065L398.145 407.785L400.215 406.325L400.935 403.605L402.955 401.115L405.445 399.395L404.645 398.655L405.675 397.035L406.075 397.375L406.045 397.365Z" stroke="white" stroke-opacity="0.2" stroke-width="0.88" stroke-miterlimit="10"/>
<path d="M119.915 121.455L121.275 122.835L120.735 124.165L121.385 125.895L121.065 130.055L119.355 132.295L120.675 134.485L120.095 135.525L121.345 136.645L124.025 137.525L125.955 141.025L127.255 141.575L126.985 142.505L127.655 143.715L129.245 143.665L131.015 145.025L132.455 144.915L131.905 146.325L132.795 150.325L125.725 158.015L126.845 162.375L125.015 164.435L124.965 165.755L126.735 169.105L129.415 169.905L128.935 172.235L130.715 172.585L130.395 173.465L131.105 175.085L129.765 174.805L130.045 175.925L131.735 177.355L131.345 178.855L132.475 183.175L135.555 184.765L136.565 188.185L137.345 188.135L138.165 190.585L136.295 191.535L134.905 191.155L133.875 191.855L132.545 191.605L134.455 193.645L132.805 194.695L132.315 196.535L131.345 197.055L130.055 197.155L129.625 194.915L128.635 194.265V193.465L126.205 193.565L125.155 192.685L123.845 193.895L124.375 195.465L123.185 195.865L122.555 197.175L124.325 198.085L124.595 199.635L123.735 199.525L123.755 199.945L125.175 200.415L124.065 200.555L124.565 200.925L123.735 201.675L124.835 202.705L123.785 203.085L124.225 203.425L126.135 202.585L124.565 204.845L125.045 205.705L126.305 206.095L126.825 207.405L127.805 207.675L127.485 208.815L128.745 209.945L128.995 213.045L131.905 214.725L132.305 213.185L132.655 214.195L133.635 214.055L133.795 214.945L134.915 215.085L135.135 214.185L136.575 214.025L137.995 212.615L140.555 212.405L140.805 215.225L141.935 216.765L143.095 216.225L143.495 216.615L144.135 217.745L143.925 219.265L145.285 221.505L146.765 222.815L147.665 222.705L148.295 224.455L147.465 225.345L148.485 226.375L148.375 227.205L149.645 227.315L150.045 227.995L152.435 227.335L152.845 229.905L154.835 231.385L154.295 233.145L154.615 235.645L154.175 235.475L154.205 239.935L154.255 241.205L151.165 242.495L149.745 241.435L149.785 240.135L148.505 239.385L147.245 239.635L145.835 236.625L143.835 236.845L143.205 235.945L141.795 236.155L141.245 237.615L139.865 238.725L141.125 240.095L141.385 243.365L140.125 244.045L139.365 242.995L137.365 243.255L137.395 244.545L135.865 245.825L136.185 247.125L135.065 247.535L134.725 245.605L133.965 245.635L134.225 244.845L132.655 242.265L131.235 242.065L128.115 241.885L127.035 243.575L127.725 244.375L125.315 247.045L124.435 246.385L121.615 246.495L121.315 245.735L120.315 247.235L119.025 246.325L118.325 246.655L117.835 248.585L116.685 249.205L113.985 246.915L112.365 246.745L111.505 245.415L110.145 246.505L110.185 248.165L108.975 248.565L110.175 251.435L109.515 253.125L106.725 254.675L106.925 256.435L106.065 257.845L104.935 257.705L104.675 259.615L103.395 259.045L103.025 259.515V260.395L104.145 261.545L103.045 262.625L103.805 263.595L103.155 265.095L104.435 266.215L104.475 267.915L103.435 269.275L102.185 269.705L100.845 268.805L99.225 270.135L100.375 270.675L100.865 271.435L100.485 272.075L98.755 271.465L97.325 272.235L89.425 269.705L87.725 270.655L87.315 272.005L88.115 273.265L89.265 273.245L87.905 274.715L87.205 274.475L87.255 273.165L85.115 270.275L85.905 267.545L83.725 267.455L82.955 269.135L80.405 268.715L75.855 270.635L74.495 270.325L74.215 271.465L72.775 270.645L71.165 271.255L70.535 269.345L67.675 269.675L66.075 267.735L64.905 267.925L63.545 265.885L62.385 265.495L61.555 265.955L58.885 264.145L56.535 264.485L55.425 263.725L54.885 260.945L53.175 259.955L53.335 259.055L51.855 257.695L51.655 256.515L50.055 255.785L50.305 252.075L52.815 251.585L49.645 248.395L48.665 245.205L49.655 243.715L51.065 243.565L52.105 242.545L52.875 239.755L53.695 239.685L52.835 237.575L53.455 236.055L54.585 235.195L58.605 235.445L58.185 233.795L56.565 232.835L56.085 230.005L55.155 228.985L56.175 226.815L55.415 225.815L52.275 224.365L51.135 225.505L49.025 225.105L46.325 223.265L46.185 222.485L43.965 221.615L44.145 219.785L43.635 219.475L44.585 218.125L43.355 216.215L43.965 215.735L43.665 214.715L40.475 214.355L39.935 211.065L39.125 210.835L38.355 208.915L40.445 207.615L40.795 206.665L43.575 206.825L44.725 205.455L48.305 206.955L48.385 207.515L50.365 206.905V204.885L52.735 204.795L53.105 203.465L55.225 201.605L56.355 201.785L57.435 201.135L58.285 202.125L60.165 199.825L60.805 199.915L61.275 197.605L60.155 194.725L61.015 194.565L61.375 193.215L62.535 192.605V191.315L63.635 189.735L60.355 187.965L59.815 185.815L61.365 182.685L61.685 185.185L62.475 184.585L65.175 185.525L67.275 182.885L69.735 182.825L71.385 182.045L72.225 182.635L75.335 180.145L76.155 178.765L77.235 178.425L78.855 178.835L80.685 177.845L82.455 178.945L82.565 179.705L83.805 179.125L85.535 180.265L87.575 179.935L88.175 180.475L92.465 177.425L94.785 177.245L95.675 177.815L96.315 175.145L97.365 174.935L95.765 171.655L97.225 169.165L96.905 168.115L95.485 167.585L93.985 164.865L94.595 160.435L93.985 156.865L94.615 156.265L94.705 153.075L95.995 151.685L99.635 151.795L100.605 150.765L100.715 149.435L101.735 148.705L101.145 146.855L101.615 145.105L104.885 144.345L105.375 143.085L107.055 142.205L106.945 140.895L107.635 139.895L106.435 137.015L105.145 135.425L103.645 134.725L106.445 131.945L107.715 132.335L109.635 131.575L110.285 129.885L111.975 129.135L112.005 127.945L114.095 127.075L114.505 125.755L113.235 125.145L113.915 124.055L114.795 123.985L116.545 122.295L119.965 121.375L119.915 121.455Z" stroke="white" stroke-opacity="0.2" stroke-width="0.88" stroke-miterlimit="10"/>
<path d="M461.085 404.254L464.465 404.914L468.775 408.194L468.185 409.544L469.295 411.644L469.225 413.054L468.885 414.784L467.695 415.974L463.545 418.754L463.295 419.704L455.925 424.314L456.055 429.314L458.255 433.464L461.295 435.664L469.525 439.474L472.145 441.524L479.255 444.204L486.655 448.674L495.375 451.454L496.835 452.714L498.415 452.754L498.815 453.414L499.645 453.054L499.865 453.694L503.545 455.294L509.565 457.264L518.035 462.804L521.225 466.694L522.985 467.494L526.985 471.264L537.355 475.424L542.795 479.204L547.725 479.794L548.705 481.414L548.275 482.164L551.425 482.274L551.135 483.234L552.505 484.924L552.035 486.714L554.015 489.154L556.105 491.064L561.265 493.944L569.505 502.774L571.265 506.694L571.065 508.244L572.425 511.424L573.675 512.184L573.225 512.604L573.745 514.054L572.235 515.444L571.805 517.534L570.055 518.744L568.795 521.524L568.025 525.524L568.055 530.794L567.085 532.164L566.025 532.444L562.665 529.844L558.185 528.904L552.535 524.314L550.145 520.154L551.205 519.714L551.045 518.004L549.215 517.024L550.545 516.054L550.905 513.854L546.855 508.824L547.145 507.144L546.245 505.224L544.035 503.384L536.065 502.214L528.355 502.814L525.585 500.814L523.215 500.564L515.595 496.154L514.615 496.184L514.875 495.384L516.565 494.644L516.755 493.344L515.565 491.904L513.555 492.004L513.045 490.584L510.545 489.644L507.195 490.144L504.125 491.814L500.985 494.594L499.115 497.674L498.435 496.044L496.895 494.754L496.575 493.334L495.025 492.394L493.535 492.784L492.775 491.954L493.615 490.124L492.595 489.354L492.985 488.644L492.145 487.754L492.525 485.214L493.075 484.814L492.265 483.004L493.055 479.834L491.985 478.594L492.885 478.144L490.325 476.194L489.855 476.854L488.825 476.244L488.675 475.374L487.795 475.934L486.315 475.294L486.215 476.824L485.465 475.654L484.615 475.884L484.675 477.544L482.885 475.374L479.825 478.924L478.485 478.554L477.805 477.024L472.035 471.724L469.455 466.054L467.695 465.484L465.825 467.204L464.425 465.874L459.515 463.784L458.985 462.794L460.315 463.034L461.895 461.234L461.625 459.874L462.185 458.964L460.565 457.644L460.025 458.014L459.485 455.954L458.375 455.694L458.165 454.794L456.635 454.534L454.615 453.084L453.365 453.834L452.655 453.584L452.815 454.254L451.345 454.634L451.475 455.464L449.995 456.274L448.715 455.344L446.515 456.134L442.435 455.454L440.735 455.784L439.545 456.864L439.835 457.944L436.675 456.364L435.295 456.484L433.455 454.904L431.965 456.034L429.475 454.984L428.505 455.774L426.735 454.514L426.095 452.854L424.715 452.174L425.435 450.424L427.205 449.374L426.455 447.284L427.865 446.384L426.755 445.124L425.335 445.404L424.425 444.104L421.425 444.224L421.245 442.314L418.635 441.384L418.095 439.084L418.835 438.054L419.765 437.894L419.295 436.844L420.015 436.164L419.855 435.464L417.355 434.764L415.765 432.274L414.015 430.254L412.645 429.664L413.275 424.764L412.465 424.054L413.565 422.724L416.415 424.044L417.575 421.924L419.415 421.124L419.445 420.394L420.125 421.074L420.725 419.754L422.535 418.854L420.905 418.114L420.025 416.794L420.675 416.334L419.805 415.264L420.645 413.864L419.925 411.294L421.795 408.604L421.615 405.734L430.775 406.294L431.875 407.194L434.675 407.304L443.395 405.684L446.355 406.514L449.985 406.334L461.135 404.314L461.085 404.254Z" stroke="white" stroke-opacity="0.2" stroke-width="0.88" stroke-miterlimit="10"/>
<path d="M116.865 571.605L117.345 572.445L119.325 571.875L121.185 575.015L120.185 579.955L118.815 580.735L116.355 576.035L115.865 573.535L116.855 571.615L116.865 571.605ZM114.065 567.625L113.955 572.415L112.535 572.745L111.345 571.915L111.385 570.435L110.035 569.635L112.175 567.665L114.065 567.625ZM178.175 465.905L178.655 466.355L176.465 467.755L175.995 467.395L178.415 465.405L178.165 465.915L178.175 465.905ZM110.455 462.485L109.965 462.985L109.915 462.105L110.455 462.485ZM114.675 454.015L114.915 455.005L116.005 455.735L115.365 456.385L115.215 458.105L112.815 456.985L110.905 459.645L111.485 459.475L112.205 460.895L111.795 462.095L109.775 461.845L110.645 459.675L110.095 459.595L110.235 458.615L111.535 458.075L112.295 456.665L113.135 456.565L112.665 454.855L114.685 454.005L114.675 454.015ZM166.525 446.695L167.285 448.035L166.195 449.865L166.955 450.065L164.935 450.375L165.895 446.585L166.535 446.695H166.525ZM160.615 446.125L161.465 446.665L160.535 447.495L160.615 446.135V446.125ZM155.635 445.725L157.845 447.545L157.185 449.195L158.115 450.165L160.265 450.015L160.505 448.895L161.605 448.775L162.075 450.375L162.575 450.505L164.315 450.525L163.455 451.645L164.565 451.835L165.355 453.045L165.205 455.605L166.515 453.625L166.265 452.615L168.455 452.735L168.725 451.725L169.535 452.815L169.045 453.105L169.905 453.155L169.665 454.235L170.835 454.185L171.065 455.165L170.185 456.495L169.705 455.905L169.365 456.225L169.615 457.485L168.885 457.945L168.205 460.565L168.885 460.525L169.035 459.335L170.585 458.865L170.115 460.845L171.275 460.895L171.235 460.175L171.635 460.435L172.065 459.745L175.185 461.355L174.575 462.005L172.665 461.035L171.455 462.085L171.965 462.995L170.835 464.515L171.125 465.335L168.735 464.985L167.935 465.345L168.725 465.755L170.585 465.795L171.345 466.105L171.015 466.465L171.865 467.465L173.165 465.665L174.275 465.875L172.975 467.525L174.945 468.495L174.475 469.685L175.945 469.365L177.785 470.635L177.145 471.125L176.265 470.805L175.905 471.655L176.405 472.335L175.635 472.735L175.515 473.845L177.585 475.895L177.445 478.285L179.205 480.485L178.665 482.735L179.225 484.975L180.845 486.485L181.095 488.075L182.555 488.985L179.795 497.035L176.335 499.985L173.485 504.855V507.865L174.685 511.425L176.455 513.805L178.265 514.855L178.245 516.315L176.165 521.425L176.305 523.285L177.385 523.555L177.565 524.215L175.955 525.835L176.605 528.615L175.405 532.715L175.805 536.805L174.365 540.345L174.835 545.185L173.735 549.085L174.365 551.435L172.195 558.025L172.465 559.875L173.765 560.935L172.395 561.395L171.455 562.835L170.575 566.905L171.325 568.025L170.375 570.645H169.475L168.665 571.635L168.775 572.775L167.895 572.035V570.765L167.065 570.445L164.935 571.165L158.575 565.925L154.675 565.105L152.805 566.235L152.385 567.735L150.135 565.925L148.265 566.755L146.035 569.525L145.995 573.165L147.285 574.965L146.185 579.115L145.705 578.635L145.065 578.955L138.835 585.225L137.725 585.185L136.845 584.035L136.275 584.785L135.155 582.995L132.715 581.595L132.565 582.505L130.145 583.105L130.395 584.015L129.435 584.495L129.875 585.665L129.115 585.915L129.365 584.145L127.565 584.245L128.205 581.345L125.975 579.315L125.595 575.575L124.135 574.735L121.575 574.685L121.975 573.065L121.355 571.705L120.795 571.175L119.825 571.695L119.785 569.135L116.725 565.855L116.635 564.995L119.265 562.535L119.735 561.325L119.055 558.945L117.845 558.515L117.665 557.015L116.945 556.415L118.685 553.665L118.645 552.625L117.335 551.765L117.515 550.885L120.505 546.455L121.305 543.225L120.335 541.335L120.725 539.565L120.185 538.575L120.635 537.165L120.195 534.245L120.795 533.505L122.355 536.205L123.035 536.155L123.335 534.335L124.755 531.915L125.105 528.155L123.775 525.725L121.655 525.595L119.975 527.315L118.055 525.495L117.835 521.555L118.735 518.965L117.135 518.035L118.275 517.085L118.715 517.695L120.595 517.115L122.215 515.395L122.285 514.065L120.735 509.745L121.905 503.295L120.865 501.315L119.125 500.305L117.415 500.205L117.255 498.945L118.255 495.995L116.995 491.275L115.405 490.715L113.705 485.415L111.325 485.885L111.205 486.695L109.415 486.735L109.395 485.185L110.055 484.725L109.095 483.725L107.505 486.225L107.015 486.065L106.765 483.435L108.565 482.605L109.515 479.815L108.145 479.225L106.245 477.065L107.785 475.005L107.535 473.305L108.725 472.265L110.345 467.825L108.235 464.895L109.465 462.785L110.975 463.875L110.755 466.385L114.385 470.275L117.065 470.815L119.065 470.485L120.765 471.735L125.545 471.035L131.545 466.185L135.945 465.535L139.585 461.395L139.485 460.245L142.185 458.625L145.795 453.725L147.245 452.945L147.815 453.585L150.085 453.145L150.625 451.925L152.105 451.865L152.825 451.055L152.155 449.375L152.745 447.465L151.615 447.275L151.745 446.445L152.665 447.065L153.925 446.385L153.975 447.195L155.585 445.645L155.635 445.725ZM164.135 445.145L165.415 447.215L165.035 448.225L162.435 448.625L162.035 447.515L163.335 446.535L163.225 445.565L163.835 446.215L164.135 445.135V445.145Z" stroke="white" stroke-opacity="0.2" stroke-width="0.88" stroke-miterlimit="10"/>
<path d="M300.405 644.365L299.575 641.485L300.735 640.865L300.405 644.365ZM440.465 618.375L442.595 619.795L445.005 620.375L442.585 621.045L441.255 622.145L440.575 624.685L441.315 624.535L437.695 631.205L429.125 642.385L429.095 643.835L427.635 644.825L427.815 645.635L424.915 649.375L424.585 650.355L425.225 651.865L424.325 655.005L423.255 656.375L423.315 659.465L420.575 662.055L419.225 664.575L419.745 673.885L422.675 675.705L424.005 676.035L424.605 675.445L426.925 678.285L426.445 678.955L425.615 678.375L425.445 679.845L425.045 678.205L424.035 678.555L423.745 681.375L424.625 683.425L425.825 683.025L426.325 683.755L425.635 683.465L425.305 683.955L425.895 685.385L427.155 686.095L428.685 686.025L428.775 688.715L427.825 688.355L427.745 689.755L428.355 690.145L429.205 689.645L430.465 691.835L428.895 691.135L427.765 691.595L427.125 693.495L424.775 694.055L422.235 696.855L419.635 703.265L421.665 709.665L421.265 710.675L420.555 710.235L418.995 711.715L416.185 708.735L413.475 709.225L411.495 707.535L409.865 707.115L405.515 708.615L403.825 707.685H401.425L399.065 705.435L396.855 704.555L392.575 704.005L391.025 702.325L390.305 699.265L387.485 694.205L382.195 688.845L377.815 686.785L373.505 685.825L368.885 685.935L366.075 686.685L364.745 686.305L362.375 683.895L359.135 683.605L355.075 681.095L354.245 679.235L350.315 676.015L348.985 676.355L348.315 675.615L345.595 675.535L343.475 673.325L339.895 671.555L338.735 670.175L337.615 670.095L336.685 667.995L332.795 664.215L328.795 663.535L326.235 664.145L323.635 660.235L321.615 659.545L315.415 659.325L310.695 660.495L307.695 655.925L305.785 654.715L303.745 654.845L301.795 652.585L301.625 650.045L299.485 646.825L301.195 645.845L302.195 642.675L300.945 640.785L302.765 638.235L302.585 636.465L303.675 635.985L302.375 634.575L303.705 634.245L306.045 631.595L307.525 631.865L309.095 631.245L310.155 630.185L310.045 629.205L312.315 629.295L313.505 627.585L312.535 625.665L313.245 624.735L313.545 625.485L314.935 625.325L314.975 626.915L315.925 627.845L315.885 629.255L316.875 631.025L320.875 634.125L324.825 633.035L328.845 630.535L327.725 627.635L328.585 627.435L329.165 626.335L328.815 625.735L330.235 624.535L333.975 625.865L335.825 625.105L336.215 623.915L337.755 624.145L339.665 622.735L340.245 624.215L341.885 625.195L342.335 627.085L341.685 628.085L342.605 629.375L345.495 630.185L347.475 629.705L348.255 628.725L349.565 629.095L349.595 631.725L350.955 633.285L357.485 636.815L359.925 637.195L364.255 636.015L368.045 633.775L371.435 633.105L373.405 634.405L375.315 634.605L376.975 633.765L383.305 635.025L387.155 634.525L389.575 633.165L391.965 633.525L399.185 631.215L404.105 625.965L406.005 626.765L410.505 625.575L411.585 624.465L414.135 626.705H417.455L418.195 628.105L419.915 628.455L423.335 626.575L425.315 624.335L426.315 621.545L425.555 619.935L426.295 619.885L426.905 621.225L426.435 623.075L428.415 623.625L433.455 622.245L438.985 618.515L440.525 618.395L440.465 618.375Z" stroke="white" stroke-opacity="0.2" stroke-width="0.88" stroke-miterlimit="10"/>
<path d="M290.765 290.656L290.835 290.796L291.095 291.766L289.185 292.756L287.985 291.356L288.225 290.376L290.655 290.396L290.765 290.656ZM175.945 255.836L179.105 253.996L182.095 249.286L186.795 248.766L188.935 249.526L189.375 250.616L190.295 250.806L189.825 253.116L190.815 254.226L194.575 256.806L196.715 256.356L201.655 261.586L203.745 260.536L205.665 261.616L207.075 261.646L209.665 264.316L211.135 264.066L212.205 264.656L212.165 265.866L213.695 267.276L213.905 268.636L216.905 271.316L218.375 270.946L218.315 269.766L219.195 268.686L224.085 268.796L228.445 272.336L230.445 272.786L231.045 273.586L230.765 274.416L231.345 274.676L235.615 269.886L235.965 270.686L235.425 271.596L236.785 272.606L239.205 272.886L242.135 271.616L244.845 272.396L247.075 272.256L246.855 271.306L244.285 269.816L244.385 268.986L247.885 268.866L249.885 267.046L250.065 266.106L252.255 265.876L254.415 263.776L255.585 264.836L255.885 266.726L257.115 267.056L258.635 268.786L259.695 269.016L260.595 268.136L262.875 268.606L263.055 269.516L261.785 271.356L264.125 271.676L268.925 270.706L268.625 273.066L266.845 274.986L266.465 276.736L264.985 277.296L265.165 278.256L264.575 278.176L264.355 279.186L266.265 281.016L265.975 282.446L267.575 283.516L267.335 286.206L270.475 287.966L272.235 290.086L276.335 290.266L276.795 291.406L277.985 291.566L278.165 292.416L279.605 293.336L280.535 292.966L281.815 293.756L282.625 293.536L283.595 294.656L285.105 293.866L286.355 294.006L287.615 293.306L288.975 295.336L289.705 293.606L291.495 293.936L292.935 293.156L293.085 293.266L294.975 294.026L296.985 296.726L295.145 296.746L295.405 298.656L294.595 298.606L294.055 295.336L293.665 298.076L292.585 298.656L291.305 298.406L291.485 299.116L290.655 300.036L288.625 300.766L289.895 302.726L287.715 305.476L287.035 307.746L285.115 307.586L284.635 308.076L284.485 309.626L286.775 310.926L286.685 311.416L284.815 312.206L283.925 313.696L282.965 313.396L281.465 314.926L281.755 315.806L283.635 315.616L283.735 317.956L284.995 317.486L285.565 318.016L286.455 320.026L285.935 321.526L286.285 322.316L288.245 323.056L289.035 321.096L290.385 322.206L284.525 325.876L282.595 324.796L281.875 325.116L282.315 326.286L281.445 328.686L276.895 331.366L276.465 332.526L277.235 334.666L276.945 335.736L277.635 337.116L278.375 336.196L279.495 337.386L277.365 346.036L278.325 346.696L278.455 348.286L277.335 348.356L275.625 350.406L273.445 350.286L272.025 351.226L271.575 352.996L270.965 351.836L269.915 351.426L268.895 353.566L272.215 356.166L271.305 358.236H270.225L270.585 360.526L271.505 360.946L271.575 361.896L270.345 362.706L269.145 362.536L268.345 364.416L267.215 364.196L265.895 365.166L265.715 366.116L264.185 366.886L263.475 366.686L262.885 367.466L261.885 366.546L261.345 366.836L261.745 368.386L260.545 370.086L262.995 371.766L263.075 374.776L257.105 374.846L255.485 378.486L248.135 376.776L247.105 375.946L244.705 376.576L244.815 377.876L243.945 378.296L243.745 379.366L242.145 379.496L240.955 378.006L239.535 377.556L239.145 375.286L240.005 374.206L240.755 374.966L242.725 374.796L243.615 372.986L243.885 370.246L242.365 367.106L240.815 367.426L239.955 364.896L238.985 363.956L239.165 363.096L235.525 361.546L234.705 358.276L232.765 356.266L228.875 354.706L225.895 354.356L223.195 352.586L224.815 351.596L224.935 348.386L225.715 347.256L225.135 345.966L223.565 344.786L220.755 343.476L218.245 343.206L214.965 343.716L214.625 345.266L212.595 344.586L212.075 341.126L213.555 340.426L214.535 334.976L213.955 325.206L212.925 322.656L211.025 320.676L209.415 315.886L208.465 315.796L207.455 313.016L205.155 311.276L203.735 307.476L204.015 305.406L202.385 298.626L202.915 297.856L202.695 294.336L201.075 286.666L196.645 279.916L193.025 276.706L191.125 275.796L193.085 273.566L193.325 272.356L191.245 271.066L189.685 272.386L190.115 271.306L189.285 270.086L189.115 268.016L185.665 268.136L186.755 266.396L187.415 266.346L186.125 265.446L184.295 266.986L184.675 264.586L183.965 263.976L183.885 261.716L181.615 260.786L178.075 258.036L177.185 255.766L175.905 255.796L175.945 255.836Z" stroke="white" stroke-opacity="0.2" stroke-width="0.88" stroke-miterlimit="10"/>
<path d="M289.385 80.6739L290.905 81.8639L289.885 82.5839L289.415 84.4939L286.805 84.7639L285.645 85.8839L286.395 89.2239L287.805 90.5539L286.665 92.2439L288.655 92.6239L289.915 94.6639L291.115 93.7239L292.665 94.0839L294.055 96.9139L293.065 98.5339L293.015 100.574L296.195 101.144L297.395 104.884L301.825 107.444L299.665 108.254L298.195 109.894L297.425 109.714L297.755 110.884L297.305 111.284L296.195 111.334L295.545 110.554L292.915 111.384L291.855 110.714L288.925 113.044L288.825 111.064L287.465 110.204L286.735 110.454L283.285 107.754L283.545 109.804L282.215 112.154L282.365 113.464L280.205 116.904L279.695 116.224L278.675 116.274L277.635 117.314L276.255 117.034L271.975 119.194L271.865 120.634L274.565 121.004L275.095 122.224L273.075 124.614L272.835 127.824L272.125 127.174L270.055 128.434L272.615 130.574L273.125 131.804L272.535 133.474L273.225 134.084L275.125 133.644L275.515 135.344L276.075 134.984L277.135 135.504L276.445 137.234L278.575 139.184L278.035 140.594L277.065 140.204L275.565 143.674L271.885 144.954L269.925 144.744L269.265 145.424L268.685 144.744L266.275 145.504V147.274L267.085 148.614L265.275 149.154L265.925 149.754L265.285 150.464L266.285 152.234L265.485 153.874L261.785 153.614L261.315 151.144L259.655 150.614L257.765 150.864L255.355 152.854L252.175 152.654L252.505 155.154L251.375 155.294L250.775 156.644L251.085 157.514L248.905 156.334L248.845 155.654L248.865 156.844L246.735 156.684L245.975 160.994L243.915 163.484L244.445 165.554L243.085 165.424L243.195 168.584L240.995 171.544L239.585 171.364L237.895 169.744L236.455 170.514L236.065 169.484L234.445 171.814L234.015 170.904L232.695 172.384L231.385 171.564L231.955 170.564L230.155 169.674H228.235L230.155 166.124L229.475 164.794L230.595 163.824L228.245 162.364L224.765 161.684L224.425 162.444L223.305 161.574L219.785 162.284L219.365 164.174L217.635 164.224L215.745 165.404L214.585 165.294L214.225 164.534L214.835 163.314L212.855 162.474L212.395 158.694L213.195 156.854L212.055 155.104L212.195 153.324L210.665 153.044L210.625 152.164L211.125 150.554L212.175 149.724L211.855 148.054L214.775 144.484L215.595 140.604L214.665 139.204L216.655 135.554L216.205 133.684L215.495 133.274L216.265 132.154L215.735 130.384L213.415 129.264L215.685 127.034L217.415 126.924L218.725 125.554L217.985 124.344L218.185 122.414L217.285 121.224L214.965 119.674L211.655 119.414L210.655 117.054L211.535 116.274L212.315 111.824L210.315 109.994L208.305 110.264L207.565 107.054L208.915 105.374L208.255 103.834L210.175 102.304L209.105 100.044L210.365 99.3439L211.645 95.7039L212.625 96.4939L215.085 96.3139L214.765 97.0839L220.115 94.5939L221.305 95.2739V96.1639L224.085 97.2939L224.485 98.0039L222.945 100.324L224.125 100.524L225.555 99.8039L226.785 101.134L227.825 100.704L230.005 101.974L231.465 101.214L236.075 101.704L236.905 99.1939L238.915 98.1439L238.375 96.0039L239.635 93.7039L239.515 92.1239L240.305 90.9839L241.455 91.1439L242.495 90.3739L242.615 88.6639L243.715 88.3439L244.525 88.8839L249.595 86.9239L250.345 87.4339L251.285 87.0239L253.385 88.7339L255.025 88.0439L256.785 85.6539L259.355 87.5139L263.045 85.5439L265.045 86.8739L267.155 86.9239L267.915 88.1739L268.815 88.4239L270.375 86.9739L272.825 86.8639L276.355 84.1439L277.765 84.0739L279.025 83.0639L280.985 83.2339L281.865 82.2639L283.475 82.4339L284.475 81.1739L285.415 81.5139L288.385 80.2539L289.345 80.6439L289.385 80.6739Z" stroke="white" stroke-opacity="0.2" stroke-width="0.88" stroke-miterlimit="10"/>
<path d="M299.565 303.974L299.105 303.464L298.935 303.414L299.145 302.814L299.725 303.084L299.815 303.554L299.565 303.974ZM289.875 302.674L290.495 303.704L293.205 303.664L293.515 304.154L295.345 302.674L296.995 302.564L296.545 303.244L296.965 304.504L294.405 306.874L295.595 308.124L296.855 307.484L297.975 309.004L299.225 307.164L300.095 307.274L300.825 308.524L301.635 308.564L301.885 307.804L302.685 308.174L308.275 314.574L310.145 313.444L312.105 314.164L313.265 311.804L315.095 312.294L314.775 314.064L315.565 314.804L313.985 316.284L314.025 317.024L316.015 319.624L316.345 322.184L315.805 322.794L317.455 323.974L318.045 326.974L319.265 327.584L319.145 330.134L317.725 331.494L318.315 332.844L320.135 333.214L320.635 334.714L320.425 337.144L321.085 338.994L320.325 339.574L321.155 341.284L320.665 342.594L323.025 344.004L323.205 344.764L324.175 344.874L324.285 348.424L325.345 347.234L325.365 345.734L326.505 346.414L327.735 345.194L330.375 347.214L332.575 350.674L334.915 350.134L336.015 348.534L337.255 351.714L337.035 353.314L336.225 354.984L335.895 354.304L334.205 354.984L333.985 356.744L333.325 360.664L332.155 361.784L330.735 361.224L330.695 361.904L328.235 363.414L326.425 362.464L325.805 363.804L322.955 363.764L322.265 364.614L320.495 363.744L319.985 364.774L320.525 367.014L318.685 367.604L317.065 369.034L315.265 368.944L315.115 370.114L312.425 370.884L313.625 372.674L310.995 374.404L309.945 374.444L309.165 372.824L308.115 372.894L307.925 376.304L304.125 379.254L303.365 378.374L303.405 376.894L300.205 377.364L301.055 376.114L299.045 375.424L299.065 373.614L299.665 373.414L299.015 372.814L299.235 371.184L297.945 371.044L296.185 372.464L295.105 371.354L293.465 371.544L294.075 371.144L292.745 370.444L293.405 369.854L292.495 369.104L292.675 367.394L291.205 366.714L290.725 362.784L289.255 360.974L287.835 360.374L286.625 361.424L286.035 361.244L285.925 361.904L285.035 360.964L281.805 362.114L278.165 359.864L277.035 358.014L278.655 357.104L279.545 355.364L277.105 353.794L275.685 350.384L277.395 348.334L278.515 348.264L278.385 346.674L277.425 346.014L279.555 337.364L278.435 336.174L277.695 337.094L277.015 335.714L277.305 334.644L276.535 332.514L276.965 331.354L281.515 328.674L282.395 326.274L281.955 325.114L282.685 324.794L284.615 325.874L290.475 322.204L289.125 321.094L288.335 323.054L286.375 322.314L286.035 321.524L286.555 320.024L285.665 318.014L285.095 317.484L283.845 317.954L283.745 315.614L281.865 315.804L281.575 314.924L283.075 313.394L284.035 313.694L284.925 312.204L286.795 311.414L286.885 310.924L284.595 309.624L284.745 308.074L285.225 307.584L287.145 307.744L287.825 305.474L289.915 302.624L289.875 302.674Z" stroke="white" stroke-opacity="0.2" stroke-width="0.88" stroke-miterlimit="10"/>
<path d="M81.1249 152.465L81.6349 153.495L84.9849 153.025L85.7849 154.325L86.9449 154.795L87.5049 156.485L88.9149 155.475L91.0849 156.885L92.1149 156.305L93.9349 156.945L94.5449 160.515L93.9349 164.945L95.4349 167.665L96.8549 168.195L97.1749 169.245L95.7149 171.735L97.3149 175.015L96.2649 175.225L95.6249 177.895L94.7349 177.325L92.4149 177.505L88.1249 180.555L87.5249 180.015L85.4849 180.345L83.7549 179.205L82.5149 179.785L82.4049 179.025L80.6349 177.925L78.8049 178.915L77.1849 178.505L76.1049 178.845L75.2849 180.225L72.1749 182.715L71.3349 182.125L69.6849 182.905L67.2249 182.965L65.1249 185.605L62.4249 184.665L61.6349 185.265L61.3149 182.765L59.7649 185.895L57.3749 185.555L57.6149 184.125L55.1649 183.455L54.9649 179.015L54.1349 178.135L55.1649 174.805L53.6349 173.885L51.3549 174.045L50.8949 172.775L48.7449 171.965L46.5349 169.405L46.8549 168.355L46.1849 165.765L47.0749 162.125L48.1249 161.825L48.9949 162.385L49.6349 161.335L51.2049 161.875L52.5149 161.465L52.9849 160.565L55.0149 159.855L55.2949 158.045L57.1049 156.515L59.8849 160.735L62.1449 159.375L63.7749 160.695L64.8649 158.845L66.7349 158.795L68.3449 156.665L72.4849 158.285L76.3949 155.825L76.3549 154.955L77.5449 154.035L79.4949 154.405L79.7549 152.535L81.1449 152.475L81.1249 152.465Z" stroke="white" stroke-opacity="0.2" stroke-width="0.88" stroke-miterlimit="10"/>
<path d="M304.905 218.325L303.715 219.005L304.545 218.085L303.755 217.765L305.165 217.605L304.915 218.335L304.905 218.325ZM303.465 216.485L304.515 217.275L302.435 217.745L302.975 216.205L303.465 216.485ZM303.145 107.525L305.635 109.235L310.505 108.745L312.325 109.395L313.105 110.355L312.935 111.935L313.785 113.395L313.175 115.385L313.945 116.405L311.705 116.455L308.665 118.365L308.555 119.195L309.635 119.895L309.985 121.425L308.385 120.745L307.475 121.435L305.855 120.745L304.475 121.845L304.115 121.465L302.815 123.255L302.565 124.795L300.805 126.345L301.085 127.565L300.555 127.325L300.715 127.855L299.105 128.675L298.815 130.445L297.135 130.205L296.225 130.945L296.265 132.695L294.685 134.355L296.545 136.855H298.375L298.605 138.235L300.225 138.145L300.485 140.015L302.615 141.725L302.215 144.865L299.665 146.585L298.115 149.055L298.925 149.755L299.545 152.035L299.565 155.085L300.825 155.125L301.745 156.455H303.045L304.155 160.445L305.375 161.555L305.195 162.605L306.955 163.525L307.555 162.115L308.645 162.695L308.755 163.485L309.735 163.945L309.775 165.365L313.185 162.215L313.775 162.815L315.515 160.975L316.505 161.715L316.125 162.595L316.675 163.235L317.155 162.325L319.065 161.375L319.625 161.435L319.275 162.405L320.375 163.405L321.705 162.575L322.135 163.535L323.495 163.095L323.095 161.855L323.615 161.645L324.125 163.035L324.085 163.305L324.435 163.625L324.285 164.345L325.005 164.655L324.045 165.215L325.825 166.905L325.395 167.135L325.965 168.275L325.655 169.305L326.505 168.685L327.005 171.025L327.695 171.205L327.375 171.905L328.265 172.615L328.115 173.775L328.975 173.665L328.865 174.205L329.805 174.735L329.315 175.415L324.995 175.715L325.075 175.055L324.275 174.745L323.855 175.935L321.225 176.275L320.395 177.405L314.895 180.835L300.915 187.345L299.575 189.075L298.105 188.335L296.415 190.605L295.155 193.075L295.065 194.025L295.795 194.365L294.845 194.715L293.475 200.415L294.665 200.785L293.715 201.725L294.215 203.935L295.335 205.205L295.085 209.855L296.345 210.925L297.735 213.645L297.285 213.345L296.585 214.175L297.385 214.665L298.145 214.115L297.935 215.085L298.385 215.205L298.865 214.935L298.475 213.385L298.905 213.415L302.685 218.135L302.105 222.065L301.165 222.925L301.205 225.425L299.795 224.945L300.095 222.435L299.195 222.045L298.385 222.375L297.725 223.885L298.485 224.845L298.155 226.665L298.835 227.245L299.405 226.845L299.455 227.475L298.295 227.365L298.195 228.625L296.075 226.935L295.545 225.025L293.795 224.575L293.235 223.745L292.945 221.205L293.495 220.115L292.765 219.165H291.815L290.535 220.305L288.645 220.155L287.935 219.235L286.635 220.085L284.625 217.385L278.745 216.445L276.815 217.125L271.305 217.055L268.745 218.245L268.095 220.195L265.295 220.985L263.525 222.655L262.435 222.765L261.815 222.555L261.435 221.135L259.595 219.895L254.585 220.225L254.445 218.915L254.245 218.015L247.235 214.255V212.095L245.985 212.845L243.235 211.825L243.755 210.405L243.395 209.515L244.515 208.615L241.885 207.635L241.065 209.115L239.875 208.475L239.665 209.595L238.615 209.405L236.575 207.695L237.415 206.045L236.655 205.565L235.245 205.845L235.575 204.345L234.885 203.275L232.365 202.135L232.455 200.995L230.855 200.575L230.755 199.975L228.435 199.455L227.455 197.395L225.735 195.705L223.615 197.475L223.165 196.605L221.855 196.275L222.455 194.595L221.585 193.285L222.725 192.435L221.885 191.775L222.725 189.515L220.565 188.525L219.955 189.235L219.225 189.075L219.585 187.335L218.595 177.015L228.335 162.525L230.685 163.985L229.565 164.955L230.245 166.285L228.335 169.825H230.245L232.045 170.725L231.475 171.715L232.785 172.535L234.095 171.055L234.525 171.975L236.145 169.635L236.535 170.665L237.975 169.895L239.665 171.515L241.075 171.695L243.275 168.735L243.165 165.575L244.525 165.705L243.995 163.625L246.055 161.135L246.815 156.835L248.945 156.995L248.925 155.805L248.985 156.485L251.165 157.665L250.855 156.805L251.455 155.455L252.585 155.315L252.265 152.825L255.445 153.025L257.855 151.045L259.745 150.795L261.405 151.325L261.875 153.795L265.575 154.055L266.375 152.415L265.375 150.645L266.015 149.945L265.375 149.345L267.185 148.815L266.365 147.465V145.695L268.775 144.935L269.365 145.615L270.015 144.935L271.985 145.145L275.655 143.865L277.155 140.395L278.125 140.785L278.655 139.375L276.525 137.425L277.215 135.695L276.155 135.185L275.595 135.545L275.205 133.845L273.305 134.285L272.615 133.675L273.215 132.015L272.705 130.775L270.145 128.645L272.215 127.385L272.925 128.035L273.165 124.825L275.185 122.445L274.665 121.225L271.965 120.855L272.075 119.405L276.355 117.245L277.735 117.535L278.765 116.495L279.785 116.435L280.295 117.115L282.465 113.675L282.315 112.375L283.645 110.015L283.375 107.965L286.835 110.665L287.565 110.415L288.925 111.275L289.025 113.255L291.955 110.925L293.015 111.595L295.635 110.765L296.295 111.545L297.405 111.495L297.855 111.095L297.525 109.935L298.285 110.115L299.755 108.465L301.925 107.655L303.165 107.575L303.145 107.525Z" fill="#FFEEBD" stroke="white" stroke-opacity="0.2" stroke-width="0.88" stroke-miterlimit="10"/>
</svg>
